<svg width="191" height="51" viewBox="0 0 191 51" fill="none" xmlns="http://www.w3.org/2000/svg">
<path d="M41.8844 19.727C40.7468 15.8219 38.2501 12.4445 34.8392 10.1966C31.4282 7.94864 27.3245 6.97606 23.2589 7.45208C19.1934 7.9281 15.4299 9.82181 12.639 12.7959C9.84809 15.77 8.21088 19.6314 8.01901 23.6922C7.82713 27.753 9.09305 31.7497 11.5913 34.9702C14.0895 38.1907 17.6578 40.4261 21.6607 41.2781C25.6635 42.13 29.8409 41.5433 33.4488 39.6224C37.0567 37.7015 39.8609 34.5712 41.3618 30.7889" stroke="#8C8E90" stroke-width="10" stroke-linecap="round"/>
<g filter="url(#filter0_dd_20828_12142)">
<path d="M41.8844 19.727C40.7468 15.8219 38.2501 12.4445 34.8392 10.1966C31.4282 7.94864 27.3245 6.97606 23.2589 7.45208C19.1934 7.9281 15.4299 9.82181 12.639 12.7959C9.84809 15.77 8.21088 19.6314 8.01901 23.6922C7.82713 27.753 9.09305 31.7497 11.5913 34.9702C14.0895 38.1907 17.6578 40.4261 21.6607 41.2781C25.6635 42.13 29.8409 41.5433 33.4488 39.6224C37.0567 37.7015 39.8609 34.5712 41.3618 30.7889" stroke="#5FD4EC" stroke-width="7" stroke-linecap="round"/>
</g>
<path d="M41.8844 19.727C40.7468 15.8219 38.2501 12.4445 34.8392 10.1966C31.4282 7.94864 27.3245 6.97606 23.2589 7.45208C19.1934 7.9281 15.4299 9.82181 12.639 12.7959C9.84809 15.77 8.21088 19.6313 8.01901 23.6922C7.82713 27.753 9.09305 31.7497 11.5913 34.9702C14.0895 38.1907 17.6578 40.4261 21.6607 41.278C25.6635 42.13 29.8409 41.5433 33.4488 39.6224C37.0567 37.7015 39.8609 34.5712 41.3617 30.7889" stroke="#FD8172" stroke-width="3" stroke-linecap="round"/>
<path d="M73.2947 26.4986V28H48V26.4986H55.6297C53.8196 25.4046 52.3876 23.9148 51.3337 22.0293C50.3026 20.1439 49.7871 18.014 49.7871 15.6397C49.7871 12.0549 51.0015 9.05214 53.4301 6.63128C55.8817 4.21043 58.9633 3 62.6751 3C66.4097 3 69.5257 4.39665 72.0231 7.18994L69.4455 10.0531C68.2999 8.93575 67.2116 8.15596 66.1806 7.71369C65.1725 7.27141 63.981 7.05028 62.6063 7.05028C60.1777 7.05028 58.1385 7.85335 56.4889 9.4595C54.8392 11.0424 54.0144 13.0791 54.0144 15.5698C54.0144 18.0372 54.8277 20.1089 56.4545 21.7849C58.1041 23.4376 60.0517 24.264 62.297 24.264C63.6946 24.264 64.8975 24.0312 65.9056 23.5656C66.9138 23.0768 67.9677 22.3087 69.0675 21.2612L71.6794 23.9846C70.6713 25.102 69.709 25.9399 68.7925 26.4986H73.2947Z" fill="#FD8172"/>
<path d="M99.185 26.4986V28H91.7615L86.0221 19.7947H80.6951V28H73.306V26.4986H76.6397V3.59357H85.5753C89.2412 3.59357 91.8646 4.22207 93.4456 5.47905C95.0265 6.73603 95.8169 8.74953 95.8169 11.5196C95.8169 15.5466 94.0871 18.0838 90.6274 19.1313L95.8513 26.4986H99.185ZM85.7472 16.0587C88.0383 16.0587 89.5964 15.6979 90.4212 14.9763C91.246 14.2547 91.6584 13.1024 91.6584 11.5196C91.6584 9.91341 91.2346 8.81937 90.3868 8.23743C89.5391 7.63222 88.0269 7.32961 85.8503 7.32961H80.6951V16.0587H85.7472Z" fill="#FD8172"/>
<path d="M101.644 26.4986V3.59357H118.518V7.46927H105.699V13.9288H117.212V17.595H105.699V24.1243H118.931V26.4986H122.264V28H98.3099V26.4986H101.644Z" fill="#FD8172"/>
<path d="M149.631 26.4986V28H141.967L139.562 22.4483H127.533L125.127 28H117.463V26.4986H121.45L131.382 3.59357H135.712L145.645 26.4986H149.631ZM137.912 18.6425L133.547 8.58659L129.182 18.6425H137.912Z" fill="#FD8172"/>
<path d="M167.062 26.4986V28H146.304V26.4986H154.655V7.36452H147.369V3.59357H165.997V7.36452H158.711V26.4986H167.062Z" fill="#FD8172"/>
<path d="M170.379 26.4986V3.59357H187.254V7.46927H174.435V13.9288H185.948V17.595H174.435V24.1243H187.666V26.4986H191V28H167.046V26.4986H170.379Z" fill="#FD8172"/>
<path d="M64.9702 44.9771V45.9341H48.4766V44.9771H53.4516C52.2713 44.2798 51.3376 43.3303 50.6503 42.1286C49.978 40.9268 49.6419 39.5693 49.6419 38.056C49.6419 35.7713 50.4337 33.8574 52.0173 32.3144C53.6159 30.7715 55.6253 30 58.0456 30C60.4808 30 62.5126 30.8902 64.1411 32.6705L62.4603 34.4954C61.7133 33.7832 61.0037 33.2862 60.3314 33.0043C59.674 32.7224 58.8972 32.5815 58.0008 32.5815C56.4171 32.5815 55.0875 33.0933 54.0118 34.117C52.9361 35.1259 52.3983 36.4241 52.3983 38.0115C52.3983 39.5842 52.9287 40.9046 53.9894 41.9728C55.0651 43.0262 56.335 43.5529 57.7991 43.5529C58.7104 43.5529 59.4948 43.4045 60.1521 43.1078C60.8095 42.7962 61.4967 42.3066 62.2138 41.639L63.917 43.3748C63.2596 44.087 62.6321 44.6211 62.0345 44.9771H64.9702Z" fill="#FD8172"/>
<path d="M83.8019 44.9771V45.9341H64.9776V44.9771H70.1095C68.8844 44.2798 67.9133 43.3229 67.1962 42.1063C66.494 40.8898 66.1429 39.5322 66.1429 38.0338C66.1429 35.749 66.9347 33.8426 68.5184 32.3144C70.102 30.7715 72.0591 30 74.3898 30C76.7204 30 78.6775 30.7715 80.2611 32.3144C81.8448 33.8426 82.6366 35.749 82.6366 38.0338C82.6366 39.5174 82.278 40.8749 81.5609 42.1063C80.8587 43.3377 79.8951 44.2947 78.67 44.9771H83.8019ZM78.3115 34.0503C77.2508 32.9524 75.9435 32.4035 74.3898 32.4035C72.836 32.4035 71.5213 32.9524 70.4456 34.0503C69.3849 35.1482 68.8545 36.4834 68.8545 38.056C68.8545 39.6138 69.3849 40.9417 70.4456 42.0396C71.5213 43.1374 72.836 43.6864 74.3898 43.6864C75.9435 43.6864 77.2508 43.1374 78.3115 42.0396C79.3872 40.9417 79.925 39.6138 79.925 38.056C79.925 36.4834 79.3872 35.1482 78.3115 34.0503Z" fill="#FD8172"/>
<path d="M105.827 44.9771V45.9341H101.009V33.7832L95.5412 44.5765H94.0621L88.6165 33.7832V45.9341H83.7984V44.9771H85.9722V30.3783H90.0956L94.8241 40.1479L99.5526 30.3783H103.654V44.9771H105.827Z" fill="#FD8172"/>
<path d="M127.865 44.9771V45.9341H123.047V33.7832L117.579 44.5765H116.1L110.654 33.7832V45.9341H105.836V44.9771H108.01V30.3783H112.133L116.862 40.1479L121.59 30.3783H125.691V44.9771H127.865Z" fill="#FD8172"/>
<path d="M130.048 44.9771V30.3783H141.051V32.8485H132.692V36.9656H140.2V39.3023H132.692V43.4638H141.32V44.9771H143.494V45.9341H127.874V44.9771H130.048Z" fill="#FD8172"/>
<path d="M159.411 44.9771V45.9341H154.571L150.829 40.7043H147.355V45.9341H142.537V44.9771H144.711V30.3783H150.537C152.928 30.3783 154.638 30.7789 155.669 31.5801C156.7 32.3812 157.215 33.6645 157.215 35.43C157.215 37.9967 156.087 39.6138 153.831 40.2815L157.238 44.9771H159.411ZM150.649 38.3231C152.143 38.3231 153.159 38.0931 153.697 37.6332C154.235 37.1733 154.504 36.4389 154.504 35.43C154.504 34.4063 154.227 33.709 153.675 33.3381C153.122 32.9524 152.136 32.7595 150.716 32.7595H147.355V38.3231H150.649Z" fill="#FD8172"/>
<path d="M175.335 44.9771V45.9341H158.841V44.9771H163.816C162.636 44.2798 161.702 43.3303 161.015 42.1286C160.342 40.9268 160.006 39.5693 160.006 38.056C160.006 35.7713 160.798 33.8574 162.382 32.3144C163.98 30.7715 165.99 30 168.41 30C170.845 30 172.877 30.8902 174.505 32.6705L172.825 34.4954C172.078 33.7832 171.368 33.2862 170.696 33.0043C170.038 32.7224 169.262 32.5815 168.365 32.5815C166.781 32.5815 165.452 33.0933 164.376 34.117C163.3 35.1259 162.763 36.4241 162.763 38.0115C162.763 39.5842 163.293 40.9046 164.354 41.9728C165.429 43.0262 166.699 43.5529 168.163 43.5529C169.075 43.5529 169.859 43.4045 170.516 43.1078C171.174 42.7962 171.861 42.3066 172.578 41.639L174.281 43.3748C173.624 44.087 172.997 44.6211 172.399 44.9771H175.335Z" fill="#FD8172"/>
<path d="M177.516 44.9771V30.3783H188.519V32.8485H180.16V36.9656H187.667V39.3023H180.16V43.4638H188.788V44.9771H190.962V45.9341H175.342V44.9771H177.516Z" fill="#FD8172"/>
<defs>
<filter id="filter0_dd_20828_12142" x="0.5" y="0.833984" width="48.8848" height="49.3252" filterUnits="userSpaceOnUse" color-interpolation-filters="sRGB">
<feFlood flood-opacity="0" result="BackgroundImageFix"/>
<feColorMatrix in="SourceAlpha" type="matrix" values="0 0 0 0 0 0 0 0 0 0 0 0 0 0 0 0 0 0 127 0" result="hardAlpha"/>
<feOffset dy="1"/>
<feGaussianBlur stdDeviation="1"/>
<feColorMatrix type="matrix" values="0 0 0 0 0 0 0 0 0 0 0 0 0 0 0 0 0 0 0.3 0"/>
<feBlend mode="normal" in2="BackgroundImageFix" result="effect1_dropShadow_20828_12142"/>
<feColorMatrix in="SourceAlpha" type="matrix" values="0 0 0 0 0 0 0 0 0 0 0 0 0 0 0 0 0 0 127 0" result="hardAlpha"/>
<feMorphology radius="1" operator="dilate" in="SourceAlpha" result="effect2_dropShadow_20828_12142"/>
<feOffset dy="1"/>
<feGaussianBlur stdDeviation="1.5"/>
<feColorMatrix type="matrix" values="0 0 0 0 0 0 0 0 0 0 0 0 0 0 0 0 0 0 0.15 0"/>
<feBlend mode="normal" in2="effect1_dropShadow_20828_12142" result="effect2_dropShadow_20828_12142"/>
<feBlend mode="normal" in="SourceGraphic" in2="effect2_dropShadow_20828_12142" result="shape"/>
</filter>
</defs>
</svg>
