<svg width="249" height="65" viewBox="0 0 249 65" fill="none" xmlns="http://www.w3.org/2000/svg">
<path d="M14.1535 3.5C10.8823 3.5 8.23047 5.96244 8.23047 9C8.23047 12.0376 10.8823 14.5 14.1535 14.5" stroke="#E95D2E" stroke-width="5"/>
<path d="M21.7683 25.5C25.0396 25.5 27.6914 23.0376 27.6914 20C27.6914 16.9624 25.0396 14.5 21.7683 14.5" stroke="#E95D2E" stroke-width="5"/>
<path d="M14.1539 14.5C18.0186 14.5 19.393 14.5 21.7695 14.5" stroke="#E95D2E" stroke-width="5"/>
<path d="M31.9238 1C33.3045 1 34.4238 2.11929 34.4238 3.5C34.4238 4.88071 33.3045 6 31.9238 6L31.9238 1ZM31.9238 3.5L31.9238 6C31.913 6 31.9022 6 31.8914 6C31.8806 6 31.8697 6 31.859 6C31.8482 6 31.8374 6 31.8266 6C31.8158 6 31.8051 6 31.7943 6C31.7835 6 31.7728 6 31.762 6C31.7513 6 31.7406 6 31.7298 6C31.7191 6 31.7084 6 31.6977 6C31.687 6 31.6763 6 31.6656 6C31.6549 6 31.6442 6 31.6335 6C31.6229 6 31.6122 6 31.6015 6C31.5909 6 31.5802 6 31.5696 6C31.559 6 31.5483 6 31.5377 6C31.5271 6 31.5165 6 31.5058 6C31.4952 6 31.4846 6 31.474 6C31.4635 6 31.4529 6 31.4423 6C31.4317 6 31.4211 6 31.4106 6C31.4 6 31.3895 6 31.3789 6C31.3684 6 31.3578 6 31.3473 6C31.3368 6 31.3263 6 31.3158 6C31.3052 6 31.2947 6 31.2842 6C31.2737 6 31.2633 6 31.2528 6C31.2423 6 31.2318 6 31.2213 6C31.2109 6 31.2004 6 31.19 6C31.1795 6 31.1691 6 31.1586 6C31.1482 6 31.1378 6 31.1273 6C31.1169 6 31.1065 6 31.0961 6C31.0857 6 31.0753 6 31.0649 6C31.0545 6 31.0441 6 31.0337 6C31.0234 6 31.013 6 31.0026 6C30.9923 6 30.9819 6 30.9716 6C30.9612 6 30.9509 6 30.9405 6C30.9302 6 30.9199 6 30.9096 6C30.8992 6 30.8889 6 30.8786 6C30.8683 6 30.858 6 30.8477 6C30.8374 6 30.8271 6 30.8168 6C30.8066 6 30.7963 6 30.786 6C30.7758 6 30.7655 6 30.7552 6C30.745 6 30.7347 6 30.7245 6C30.7143 6 30.704 6 30.6938 6C30.6836 6 30.6734 6 30.6631 6C30.6529 6 30.6427 6 30.6325 6C30.6223 6 30.6121 6 30.6019 6C30.5918 6 30.5816 6 30.5714 6C30.5612 6 30.5511 6 30.5409 6C30.5307 6 30.5206 6 30.5104 6C30.5003 6 30.4901 6 30.48 6C30.4699 6 30.4597 6 30.4496 6C30.4395 6 30.4293 6 30.4192 6C30.4091 6 30.399 6 30.3889 6C30.3788 6 30.3687 6 30.3586 6C30.3485 6 30.3384 6 30.3284 6C30.3183 6 30.3082 6 30.2982 6C30.2881 6 30.278 6 30.268 6C30.2579 6 30.2479 6 30.2378 6C30.2278 6 30.2177 6 30.2077 6C30.1977 6 30.1876 6 30.1776 6C30.1676 6 30.1576 6 30.1476 6C30.1376 6 30.1276 6 30.1176 6C30.1076 6 30.0976 6 30.0876 6C30.0776 6 30.0676 6 30.0576 6C30.0477 6 30.0377 6 30.0277 6C30.0177 6 30.0078 6 29.9978 6C29.9879 6 29.9779 6 29.968 6C29.958 6 29.9481 6 29.9381 6C29.9282 6 29.9183 6 29.9083 6C29.8984 6 29.8885 6 29.8786 6C29.8687 6 29.8587 6 29.8488 6C29.8389 6 29.829 6 29.8191 6C29.8092 6 29.7993 6 29.7895 6C29.7796 6 29.7697 6 29.7598 6C29.7499 6 29.74 6 29.7302 6C29.7203 6 29.7104 6 29.7006 6C29.6907 6 29.6809 6 29.671 6C29.6612 6 29.6513 6 29.6415 6C29.6316 6 29.6218 6 29.612 6C29.6021 6 29.5923 6 29.5825 6C29.5726 6 29.5628 6 29.553 6C29.5432 6 29.5334 6 29.5236 6C29.5138 6 29.504 6 29.4942 6C29.4844 6 29.4746 6 29.4648 6C29.455 6 29.4452 6 29.4354 6C29.4256 6 29.4158 6 29.4061 6C29.3963 6 29.3865 6 29.3768 6C29.367 6 29.3572 6 29.3475 6C29.3377 6 29.328 6 29.3182 6C29.3084 6 29.2987 6 29.289 6C29.2792 6 29.2695 6 29.2597 6C29.25 6 29.2403 6 29.2305 6C29.2208 6 29.2111 6 29.2013 6C29.1916 6 29.1819 6 29.1722 6C29.1625 6 29.1528 6 29.143 6C29.1333 6 29.1236 6 29.1139 6C29.1042 6 29.0945 6 29.0848 6C29.0751 6 29.0654 6 29.0558 6C29.0461 6 29.0364 6 29.0267 6C29.017 6 29.0073 6 28.9977 6C28.988 6 28.9783 6 28.9686 6C28.959 6 28.9493 6 28.9396 6C28.93 6 28.9203 6 28.9106 6C28.901 6 28.8913 6 28.8817 6C28.872 6 28.8624 6 28.8527 6C28.8431 6 28.8334 6 28.8238 6C28.8141 6 28.8045 6 28.7949 6C28.7852 6 28.7756 6 28.766 6C28.7563 6 28.7467 6 28.7371 6C28.7274 6 28.7178 6 28.7082 6C28.6986 6 28.689 6 28.6793 6C28.6697 6 28.6601 6 28.6505 6C28.6409 6 28.6313 6 28.6217 6C28.6121 6 28.6025 6 28.5929 6C28.5833 6 28.5737 6 28.5641 6C28.5545 6 28.5449 6 28.5353 6C28.5257 6 28.5161 6 28.5065 6C28.4969 6 28.4873 6 28.4777 6C28.4681 6 28.4586 6 28.449 6C28.4394 6 28.4298 6 28.4202 6C28.4107 6 28.4011 6 28.3915 6C28.3819 6 28.3724 6 28.3628 6C28.3532 6 28.3437 6 28.3341 6C28.3245 6 28.315 6 28.3054 6C28.2958 6 28.2863 6 28.2767 6C28.2672 6 28.2576 6 28.248 6C28.2385 6 28.2289 6 28.2194 6C28.2098 6 28.2003 6 28.1907 6C28.1812 6 28.1716 6 28.1621 6C28.1525 6 28.143 6 28.1334 6C28.1239 6 28.1143 6 28.1048 6C28.0952 6 28.0857 6 28.0762 6C28.0666 6 28.0571 6 28.0475 6C28.038 6 28.0285 6 28.0189 6C28.0094 6 27.9998 6 27.9903 6C27.9808 6 27.9712 6 27.9617 6C27.9522 6 27.9426 6 27.9331 6C27.9236 6 27.914 6 27.9045 6C27.895 6 27.8855 6 27.8759 6C27.8664 6 27.8569 6 27.8473 6C27.8378 6 27.8283 6 27.8188 6C27.8092 6 27.7997 6 27.7902 6C27.7807 6 27.7711 6 27.7616 6C27.7521 6 27.7426 6 27.733 6C27.7235 6 27.714 6 27.7045 6C27.695 6 27.6854 6 27.6759 6C27.6664 6 27.6569 6 27.6474 6C27.6378 6 27.6283 6 27.6188 6C27.6093 6 27.5998 6 27.5902 6C27.5807 6 27.5712 6 27.5617 6C27.5522 6 27.5426 6 27.5331 6C27.5236 6 27.5141 6 27.5046 6C27.495 6 27.4855 6 27.476 6C27.4665 6 27.457 6 27.4474 6C27.4379 6 27.4284 6 27.4189 6C27.4093 6 27.3998 6 27.3903 6C27.3808 6 27.3713 6 27.3617 6C27.3522 6 27.3427 6 27.3332 6C27.3237 6 27.3141 6 27.3046 6C27.2951 6 27.2856 6 27.276 6C27.2665 6 27.257 6 27.2475 6C27.2379 6 27.2284 6 27.2189 6C27.2093 6 27.1998 6 27.1903 6C27.1808 6 27.1712 6 27.1617 6C27.1522 6 27.1426 6 27.1331 6C27.1236 6 27.114 6 27.1045 6C27.095 6 27.0854 6 27.0759 6C27.0664 6 27.0568 6 27.0473 6C27.0378 6 27.0282 6 27.0187 6C27.0091 6 26.9996 6 26.9901 6C26.9805 6 26.971 6 26.9614 6C26.9519 6 26.9423 6 26.9328 6C26.9232 6 26.9137 6 26.9042 6C26.8946 6 26.8851 6 26.8755 6C26.8659 6 26.8564 6 26.8468 6C26.8373 6 26.8277 6 26.8182 6C26.8086 6 26.7991 6 26.7895 6C26.7799 6 26.7704 6 26.7608 6C26.7512 6 26.7417 6 26.7321 6C26.7225 6 26.713 6 26.7034 6C26.6938 6 26.6843 6 26.6747 6C26.6651 6 26.6555 6 26.6459 6C26.6364 6 26.6268 6 26.6172 6C26.6076 6 26.598 6 26.5885 6C26.5789 6 26.5693 6 26.5597 6C26.5501 6 26.5405 6 26.5309 6C26.5213 6 26.5117 6 26.5021 6C26.4925 6 26.4829 6 26.4733 6C26.4637 6 26.4541 6 26.4445 6C26.4349 6 26.4253 6 26.4157 6C26.4061 6 26.3964 6 26.3868 6C26.3772 6 26.3676 6 26.358 6C26.3483 6 26.3387 6 26.3291 6C26.3195 6 26.3098 6 26.3002 6C26.2906 6 26.2809 6 26.2713 6C26.2617 6 26.252 6 26.2424 6C26.2327 6 26.2231 6 26.2134 6C26.2038 6 26.1941 6 26.1845 6C26.1748 6 26.1652 6 26.1555 6C26.1458 6 26.1362 6 26.1265 6C26.1169 6 26.1072 6 26.0975 6C26.0878 6 26.0782 6 26.0685 6C26.0588 6 26.0491 6 26.0394 6C26.0298 6 26.0201 6 26.0104 6C26.0007 6 25.991 6 25.9813 6C25.9716 6 25.9619 6 25.9522 6C25.9425 6 25.9328 6 25.9231 6C25.9134 6 25.9036 6 25.8939 6C25.8842 6 25.8745 6 25.8648 6C25.855 6 25.8453 6 25.8356 6C25.8258 6 25.8161 6 25.8064 6C25.7966 6 25.7869 6 25.7771 6C25.7674 6 25.7577 6 25.7479 6C25.7381 6 25.7284 6 25.7186 6C25.7089 6 25.6991 6 25.6893 6C25.6796 6 25.6698 6 25.66 6C25.6502 6 25.6405 6 25.6307 6C25.6209 6 25.6111 6 25.6013 6C25.5915 6 25.5817 6 25.5719 6C25.5621 6 25.5523 6 25.5425 6C25.5327 6 25.5229 6 25.5131 6C25.5032 6 25.4934 6 25.4836 6C25.4738 6 25.4639 6 25.4541 6C25.4443 6 25.4344 6 25.4246 6C25.4147 6 25.4049 6 25.395 6C25.3852 6 25.3753 6 25.3655 6C25.3556 6 25.3457 6 25.3359 6C25.326 6 25.3161 6 25.3062 6C25.2963 6 25.2865 6 25.2766 6C25.2667 6 25.2568 6 25.2469 6C25.237 6 25.2271 6 25.2172 6C25.2073 6 25.1973 6 25.1874 6C25.1775 6 25.1676 6 25.1577 6C25.1477 6 25.1378 6 25.1279 6C25.1179 6 25.108 6 25.098 6C25.0881 6 25.0781 6 25.0682 6C25.0582 6 25.0482 6 25.0383 6C25.0283 6 25.0183 6 25.0083 6C24.9984 6 24.9884 6 24.9784 6C24.9684 6 24.9584 6 24.9484 6C24.9384 6 24.9284 6 24.9184 6C24.9084 6 24.8983 6 24.8883 6C24.8783 6 24.8683 6 24.8582 6C24.8482 6 24.8382 6 24.8281 6C24.8181 6 24.808 6 24.798 6C24.7879 6 24.7778 6 24.7678 6C24.7577 6 24.7476 6 24.7375 6C24.7275 6 24.7174 6 24.7073 6C24.6972 6 24.6871 6 24.677 6C24.6669 6 24.6568 6 24.6467 6C24.6365 6 24.6264 6 24.6163 6C24.6062 6 24.596 6 24.5859 6C24.5758 6 24.5656 6 24.5555 6C24.5453 6 24.5351 6 24.525 6C24.5148 6 24.5046 6 24.4945 6C24.4843 6 24.4741 6 24.4639 6C24.4537 6 24.4435 6 24.4333 6C24.4231 6 24.4129 6 24.4027 6C24.3925 6 24.3823 6 24.372 6C24.3618 6 24.3516 6 24.3413 6C24.3311 6 24.3208 6 24.3106 6C24.3003 6 24.2901 6 24.2798 6C24.2695 6 24.2592 6 24.249 6C24.2387 6 24.2284 6 24.2181 6C24.2078 6 24.1975 6 24.1872 6C24.1769 6 24.1666 6 24.1562 6C24.1459 6 24.1356 6 24.1252 6C24.1149 6 24.1046 6 24.0942 6C24.0839 6 24.0735 6 24.0631 6C24.0528 6 24.0424 6 24.032 6C24.0216 6 24.0112 6 24.0008 6C23.9904 6 23.98 6 23.9696 6C23.9592 6 23.9488 6 23.9384 6C23.928 6 23.9175 6 23.9071 6C23.8966 6 23.8862 6 23.8757 6C23.8653 6 23.8548 6 23.8444 6C23.8339 6 23.8234 6 23.8129 6C23.8024 6 23.7919 6 23.7814 6C23.7709 6 23.7604 6 23.7499 6C23.7394 6 23.7289 6 23.7184 6C23.7078 6 23.6973 6 23.6867 6C23.6762 6 23.6656 6 23.6551 6C23.6445 6 23.6339 6 23.6234 6C23.6128 6 23.6022 6 23.5916 6C23.581 6 23.5704 6 23.5598 6C23.5492 6 23.5386 6 23.5279 6C23.5173 6 23.5067 6 23.496 6C23.4854 6 23.4747 6 23.4641 6C23.4534 6 23.4427 6 23.4321 6C23.4214 6 23.4107 6 23.4 6C23.3893 6 23.3786 6 23.3679 6C23.3572 6 23.3465 6 23.3357 6C23.325 6 23.3143 6 23.3035 6C23.2928 6 23.282 6 23.2713 6C23.2605 6 23.2497 6 23.2389 6C23.2282 6 23.2174 6 23.2066 6C23.1958 6 23.185 6 23.1742 6C23.1633 6 23.1525 6 23.1417 6C23.1308 6 23.12 6 23.1092 6C23.0983 6 23.0874 6 23.0766 6C23.0657 6 23.0548 6 23.0439 6C23.033 6 23.0222 6 23.0112 6C23.0003 6 22.9894 6 22.9785 6C22.9676 6 22.9566 6 22.9457 6C22.9348 6 22.9238 6 22.9128 6C22.9019 6 22.8909 6 22.8799 6C22.869 6 22.858 6 22.847 6C22.836 6 22.825 6 22.8139 6C22.8029 6 22.7919 6 22.7809 6C22.7698 6 22.7588 6 22.7477 6C22.7367 6 22.7256 6 22.7145 6C22.7034 6 22.6924 6 22.6813 6C22.6702 6 22.6591 6 22.6479 6C22.6368 6 22.6257 6 22.6146 6C22.6034 6 22.5923 6 22.5811 6C22.57 6 22.5588 6 22.5476 6C22.5365 6 22.5253 6 22.5141 6C22.5029 6 22.4917 6 22.4805 6C22.4693 6 22.458 6 22.4468 6C22.4356 6 22.4243 6 22.4131 6C22.4018 6 22.3905 6 22.3793 6C22.368 6 22.3567 6 22.3454 6C22.3341 6 22.3228 6 22.3115 6C22.3002 6 22.2888 6 22.2775 6C22.2662 6 22.2548 6 22.2435 6C22.2321 6 22.2207 6 22.2093 6C22.198 6 22.1866 6 22.1752 6C22.1638 6 22.1524 6 22.1409 6C22.1295 6 22.1181 6 22.1066 6C22.0952 6 22.0837 6 22.0723 6C22.0608 6 22.0493 6 22.0378 6C22.0263 6 22.0148 6 22.0033 6C21.9918 6 21.9803 6 21.9688 6C21.9572 6 21.9457 6 21.9341 6C21.9226 6 21.911 6 21.8994 6C21.8879 6 21.8763 6 21.8647 6C21.8531 6 21.8415 6 21.8298 6C21.8182 6 21.8066 6 21.7949 6C21.7833 6 21.7716 6 21.76 6C21.7483 6 21.7366 6 21.7249 6C21.7132 6 21.7015 6 21.6898 6C21.6781 6 21.6664 6 21.6546 6C21.6429 6 21.6312 6 21.6194 6C21.6076 6 21.5959 6 21.5841 6C21.5723 6 21.5605 6 21.5487 6C21.5369 6 21.5251 6 21.5132 6C21.5014 6 21.4896 6 21.4777 6C21.4659 6 21.454 6 21.4421 6C21.4302 6 21.4184 6 21.4065 6C21.3946 6 21.3826 6 21.3707 6C21.3588 6 21.3468 6 21.3349 6C21.3229 6 21.311 6 21.299 6C21.287 6 21.275 6 21.263 6C21.251 6 21.239 6 21.227 6C21.215 6 21.203 6 21.1909 6C21.1789 6 21.1668 6 21.1547 6C21.1426 6 21.1306 6 21.1185 6C21.1064 6 21.0943 6 21.0821 6C21.07 6 21.0579 6 21.0457 6C21.0336 6 21.0214 6 21.0092 6C20.9971 6 20.9849 6 20.9727 6C20.9605 6 20.9483 6 20.936 6C20.9238 6 20.9116 6 20.8993 6C20.8871 6 20.8748 6 20.8625 6C20.8503 6 20.838 6 20.8257 6C20.8134 6 20.8011 6 20.7887 6C20.7764 6 20.7641 6 20.7517 6C20.7393 6 20.727 6 20.7146 6C20.7022 6 20.6898 6 20.6774 6C20.665 6 20.6526 6 20.6402 6C20.6277 6 20.6153 6 20.6028 6C20.5904 6 20.5779 6 20.5654 6C20.5529 6 20.5404 6 20.5279 6C20.5154 6 20.5028 6 20.4903 6C20.4778 6 20.4652 6 20.4526 6C20.4401 6 20.4275 6 20.4149 6C20.4023 6 20.3897 6 20.3771 6C20.3644 6 20.3518 6 20.3392 6C20.3265 6 20.3138 6 20.3012 6C20.2885 6 20.2758 6 20.2631 6C20.2504 6 20.2377 6 20.2249 6C20.2122 6 20.1994 6 20.1867 6C20.1739 6 20.1611 6 20.1484 6C20.1356 6 20.1228 6 20.1099 6C20.0971 6 20.0843 6 20.0714 6C20.0586 6 20.0457 6 20.0329 6C20.02 6 20.0071 6 19.9942 6C19.9813 6 19.9684 6 19.9554 6C19.9425 6 19.9296 6 19.9166 6C19.9036 6 19.8907 6 19.8777 6C19.8647 6 19.8517 6 19.8387 6C19.8256 6 19.8126 6 19.7996 6C19.7865 6 19.7734 6 19.7604 6C19.7473 6 19.7342 6 19.7211 6C19.708 6 19.6949 6 19.6817 6C19.6686 6 19.6554 6 19.6423 6C19.6291 6 19.6159 6 19.6027 6C19.5895 6 19.5763 6 19.5631 6C19.5499 6 19.5366 6 19.5234 6C19.5101 6 19.4968 6 19.4835 6C19.4703 6 19.457 6 19.4436 6C19.4303 6 19.417 6 19.4036 6C19.3903 6 19.3769 6 19.3636 6C19.3502 6 19.3368 6 19.3234 6C19.31 6 19.2965 6 19.2831 6C19.2697 6 19.2562 6 19.2427 6C19.2293 6 19.2158 6 19.2023 6C19.1888 6 19.1753 6 19.1617 6C19.1482 6 19.1347 6 19.1211 6C19.1075 6 19.0939 6 19.0804 6C19.0668 6 19.0531 6 19.0395 6C19.0259 6 19.0123 6 18.9986 6C18.9849 6 18.9713 6 18.9576 6C18.9439 6 18.9302 6 18.9165 6C18.9027 6 18.889 6 18.8752 6C18.8615 6 18.8477 6 18.8339 6C18.8201 6 18.8063 6 18.7925 6C18.7787 6 18.7649 6 18.751 6C18.7372 6 18.7233 6 18.7094 6C18.6955 6 18.6816 6 18.6677 6C18.6538 6 18.6399 6 18.6259 6C18.612 6 18.598 6 18.584 6C18.57 6 18.5561 6 18.542 6C18.528 6 18.514 6 18.4999 6C18.4859 6 18.4718 6 18.4578 6C18.4437 6 18.4296 6 18.4155 6C18.4013 6 18.3872 6 18.3731 6C18.3589 6 18.3448 6 18.3306 6C18.3164 6 18.3022 6 18.288 6C18.2738 6 18.2595 6 18.2453 6C18.231 6 18.2168 6 18.2025 6C18.1882 6 18.1739 6 18.1596 6C18.1453 6 18.1309 6 18.1166 6C18.1022 6 18.0879 6 18.0735 6C18.0591 6 18.0447 6 18.0303 6C18.0159 6 18.0014 6 17.987 6C17.9725 6 17.958 6 17.9436 6C17.9291 6 17.9146 6 17.9 6C17.8855 6 17.871 6 17.8564 6C17.8419 6 17.8273 6 17.8127 6C17.7981 6 17.7835 6 17.7689 6C17.7542 6 17.7396 6 17.7249 6C17.7102 6 17.6956 6 17.6809 6C17.6662 6 17.6515 6 17.6367 6C17.622 6 17.6072 6 17.5925 6C17.5777 6 17.5629 6 17.5481 6C17.5333 6 17.5185 6 17.5036 6C17.4888 6 17.4739 6 17.459 6C17.4442 6 17.4293 6 17.4144 6C17.3994 6 17.3845 6 17.3696 6C17.3546 6 17.3396 6 17.3246 6C17.3097 6 17.2947 6 17.2796 6C17.2646 6 17.2496 6 17.2345 6C17.2194 6 17.2044 6 17.1893 6C17.1742 6 17.1591 6 17.1439 6C17.1288 6 17.1136 6 17.0985 6C17.0833 6 17.0681 6 17.0529 6C17.0377 6 17.0225 6 17.0072 6C16.992 6 16.9767 6 16.9614 6C16.9461 6 16.9308 6 16.9155 6C16.9002 6 16.8849 6 16.8695 6C16.8542 6 16.8388 6 16.8234 6C16.808 6 16.7926 6 16.7771 6C16.7617 6 16.7463 6 16.7308 6C16.7153 6 16.6998 6 16.6843 6C16.6688 6 16.6533 6 16.6377 6C16.6222 6 16.6066 6 16.591 6C16.5754 6 16.5598 6 16.5442 6C16.5286 6 16.513 6 16.4973 6C16.4816 6 16.4659 6 16.4502 6C16.4345 6 16.4188 6 16.4031 6C16.3873 6 16.3716 6 16.3558 6C16.34 6 16.3242 6 16.3084 6C16.2926 6 16.2768 6 16.2609 6C16.245 6 16.2292 6 16.2133 6C16.1974 6 16.1815 6 16.1655 6C16.1496 6 16.1336 6 16.1177 6C16.1017 6 16.0857 6 16.0697 6C16.0537 6 16.0376 6 16.0216 6C16.0055 6 15.9894 6 15.9733 6C15.9572 6 15.9411 6 15.925 6C15.9089 6 15.8927 6 15.8765 6C15.8604 6 15.8442 6 15.8279 6C15.8117 6 15.7955 6 15.7792 6C15.763 6 15.7467 6 15.7304 6C15.7141 6 15.6978 6 15.6815 6C15.6651 6 15.6488 6 15.6324 6C15.616 6 15.5996 6 15.5832 6C15.5668 6 15.5503 6 15.5339 6C15.5174 6 15.5009 6 15.4844 6C15.4679 6 15.4514 6 15.4349 6C15.4183 6 15.4018 6 15.3852 6C15.3686 6 15.352 6 15.3354 6C15.3188 6 15.3021 6 15.2854 6C15.2688 6 15.2521 6 15.2354 6C15.2187 6 15.2019 6 15.1852 6C15.1684 6 15.1517 6 15.1349 6C15.1181 6 15.1013 6 15.0844 6C15.0676 6 15.0508 6 15.0339 6C15.017 6 15.0001 6 14.9832 6C14.9663 6 14.9493 6 14.9324 6C14.9154 6 14.8984 6 14.8814 6C14.8644 6 14.8474 6 14.8304 6C14.8133 6 14.7962 6 14.7792 6C14.7621 6 14.745 6 14.7278 6C14.7107 6 14.6935 6 14.6764 6C14.6592 6 14.642 6 14.6248 6C14.6076 6 14.5903 6 14.5731 6C14.5558 6 14.5385 6 14.5212 6C14.5039 6 14.4866 6 14.4692 6C14.4519 6 14.4345 6 14.4171 6C14.3997 6 14.3823 6 14.3649 6C14.3474 6 14.33 6 14.3125 6C14.295 6 14.2775 6 14.26 6C14.2425 6 14.2249 6 14.2074 6C14.1898 6 14.1722 6 14.1546 6L14.1546 3.5L14.1546 0.999999C14.1722 0.999999 14.1898 0.999999 14.2074 0.999999C14.2249 0.999999 14.2425 0.999999 14.26 0.999999C14.2775 0.999999 14.295 0.999999 14.3125 0.999999C14.33 0.999999 14.3474 0.999999 14.3649 0.999999C14.3823 0.999999 14.3997 0.999999 14.4171 0.999999C14.4345 0.999999 14.4519 0.999999 14.4692 0.999999C14.4866 0.999999 14.5039 0.999999 14.5212 0.999999C14.5385 0.999999 14.5558 0.999999 14.5731 0.999999C14.5903 0.999999 14.6076 0.999999 14.6248 0.999999C14.642 0.999999 14.6592 0.999999 14.6764 0.999999C14.6935 0.999999 14.7107 0.999999 14.7278 0.999999C14.745 0.999999 14.7621 0.999999 14.7792 0.999999C14.7962 0.999999 14.8133 0.999999 14.8304 0.999999C14.8474 0.999999 14.8644 0.999999 14.8814 0.999999C14.8984 0.999999 14.9154 0.999999 14.9324 0.999999C14.9493 0.999999 14.9663 0.999999 14.9832 0.999999C15.0001 0.999999 15.017 0.999999 15.0339 0.999999C15.0508 0.999999 15.0676 0.999999 15.0844 0.999999C15.1013 0.999999 15.1181 0.999999 15.1349 0.999999C15.1517 0.999999 15.1684 0.999999 15.1852 0.999999C15.2019 0.999999 15.2187 0.999999 15.2354 0.999999C15.2521 0.999999 15.2688 0.999999 15.2854 0.999999C15.3021 0.999999 15.3188 0.999999 15.3354 0.999999C15.352 0.999999 15.3686 0.999999 15.3852 0.999999C15.4018 0.999999 15.4183 0.999999 15.4349 0.999999C15.4514 0.999999 15.4679 0.999999 15.4844 0.999999C15.5009 0.999999 15.5174 0.999999 15.5339 0.999999C15.5503 0.999999 15.5668 0.999999 15.5832 0.999999C15.5996 0.999999 15.616 0.999999 15.6324 0.999999C15.6488 0.999999 15.6651 0.999999 15.6815 0.999999C15.6978 0.999999 15.7141 0.999999 15.7304 0.999999C15.7467 0.999999 15.763 0.999999 15.7792 0.999999C15.7955 0.999999 15.8117 0.999999 15.8279 0.999999C15.8442 0.999999 15.8604 0.999999 15.8765 0.999999C15.8927 0.999999 15.9089 0.999999 15.925 0.999999C15.9411 0.999999 15.9572 0.999999 15.9733 0.999999C15.9894 0.999999 16.0055 0.999999 16.0216 0.999999C16.0376 0.999999 16.0537 0.999999 16.0697 0.999999C16.0857 0.999999 16.1017 0.999999 16.1177 0.999999C16.1336 0.999999 16.1496 0.999999 16.1655 0.999999C16.1815 0.999999 16.1974 0.999999 16.2133 0.999999C16.2292 0.999999 16.245 0.999999 16.2609 0.999999C16.2768 0.999999 16.2926 0.999999 16.3084 0.999999C16.3242 0.999999 16.34 0.999999 16.3558 0.999999C16.3716 0.999999 16.3873 0.999999 16.4031 0.999999C16.4188 0.999999 16.4345 0.999999 16.4502 0.999999C16.4659 0.999999 16.4816 0.999999 16.4973 0.999999C16.513 0.999999 16.5286 0.999999 16.5442 0.999999C16.5598 0.999999 16.5754 0.999999 16.591 0.999999C16.6066 0.999999 16.6222 0.999999 16.6377 0.999999C16.6533 0.999999 16.6688 0.999999 16.6843 0.999999C16.6998 0.999999 16.7153 0.999999 16.7308 0.999999C16.7463 0.999999 16.7617 0.999999 16.7771 0.999999C16.7926 0.999999 16.808 0.999999 16.8234 0.999999C16.8388 0.999999 16.8542 0.999999 16.8695 0.999999C16.8849 0.999999 16.9002 0.999999 16.9155 0.999999C16.9308 0.999999 16.9461 0.999999 16.9614 0.999999C16.9767 0.999999 16.992 0.999999 17.0072 0.999999C17.0225 0.999999 17.0377 0.999999 17.0529 0.999999C17.0681 0.999999 17.0833 0.999999 17.0985 0.999999C17.1136 0.999999 17.1288 0.999999 17.1439 0.999999C17.1591 0.999999 17.1742 0.999999 17.1893 0.999999C17.2044 0.999999 17.2194 0.999999 17.2345 0.999999C17.2496 0.999999 17.2646 0.999999 17.2796 0.999999C17.2947 0.999999 17.3097 0.999999 17.3246 0.999999C17.3396 0.999999 17.3546 0.999999 17.3696 0.999999C17.3845 0.999999 17.3994 0.999999 17.4144 0.999999C17.4293 0.999999 17.4442 0.999999 17.459 0.999999C17.4739 0.999999 17.4888 0.999999 17.5036 0.999999C17.5185 0.999999 17.5333 0.999999 17.5481 0.999999C17.5629 0.999999 17.5777 0.999999 17.5925 0.999999C17.6072 0.999999 17.622 0.999999 17.6367 0.999999C17.6515 0.999999 17.6662 0.999999 17.6809 0.999999C17.6956 0.999999 17.7103 0.999999 17.7249 0.999999C17.7396 0.999999 17.7542 0.999999 17.7689 0.999999C17.7835 0.999999 17.7981 0.999999 17.8127 0.999999C17.8273 0.999999 17.8419 0.999999 17.8564 0.999999C17.871 0.999999 17.8855 0.999999 17.9 0.999999C17.9146 0.999999 17.9291 0.999999 17.9436 0.999999C17.958 0.999999 17.9725 0.999999 17.987 0.999999C18.0014 0.999999 18.0159 0.999999 18.0303 0.999999C18.0447 0.999999 18.0591 0.999999 18.0735 0.999999C18.0879 0.999999 18.1022 0.999999 18.1166 0.999999C18.1309 0.999999 18.1453 0.999999 18.1596 0.999999C18.1739 0.999999 18.1882 0.999999 18.2025 0.999999C18.2168 0.999999 18.231 0.999999 18.2453 0.999999C18.2595 0.999999 18.2738 0.999999 18.288 0.999999C18.3022 0.999999 18.3164 0.999999 18.3306 0.999999C18.3448 0.999999 18.3589 0.999999 18.3731 0.999999C18.3872 0.999999 18.4013 0.999999 18.4155 0.999999C18.4296 0.999999 18.4437 0.999999 18.4578 0.999999C18.4718 0.999999 18.4859 0.999999 18.4999 0.999999C18.514 0.999999 18.528 0.999999 18.542 0.999999C18.5561 0.999999 18.57 0.999999 18.584 0.999999C18.598 0.999999 18.612 0.999999 18.6259 0.999999C18.6399 0.999999 18.6538 0.999999 18.6677 0.999999C18.6816 0.999999 18.6955 0.999999 18.7094 0.999999C18.7233 0.999999 18.7372 0.999999 18.751 0.999999C18.7649 0.999999 18.7787 0.999999 18.7925 0.999999C18.8063 0.999999 18.8201 0.999999 18.8339 0.999999C18.8477 0.999999 18.8615 0.999999 18.8752 0.999999C18.889 0.999999 18.9027 0.999999 18.9165 0.999999C18.9302 0.999999 18.9439 0.999999 18.9576 0.999999C18.9713 0.999999 18.9849 0.999999 18.9986 0.999999C19.0123 0.999999 19.0259 0.999999 19.0395 0.999999C19.0531 0.999999 19.0668 0.999999 19.0804 0.999999C19.0939 0.999999 19.1075 0.999999 19.1211 0.999999C19.1347 0.999999 19.1482 0.999999 19.1617 0.999999C19.1753 0.999999 19.1888 0.999999 19.2023 0.999999C19.2158 0.999999 19.2293 0.999999 19.2427 0.999999C19.2562 0.999999 19.2697 0.999999 19.2831 0.999999C19.2965 0.999999 19.31 0.999999 19.3234 0.999999C19.3368 0.999999 19.3502 0.999999 19.3636 0.999999C19.3769 0.999999 19.3903 0.999999 19.4036 0.999999C19.417 0.999999 19.4303 0.999999 19.4436 0.999999C19.457 0.999999 19.4703 0.999999 19.4835 0.999999C19.4968 0.999999 19.5101 0.999999 19.5234 0.999999C19.5366 0.999999 19.5499 0.999999 19.5631 0.999999C19.5763 0.999999 19.5895 0.999999 19.6027 0.999999C19.6159 0.999999 19.6291 0.999999 19.6423 0.999999C19.6554 0.999999 19.6686 0.999999 19.6817 0.999999C19.6949 0.999999 19.708 0.999999 19.7211 0.999999C19.7342 0.999999 19.7473 0.999999 19.7604 0.999999C19.7734 0.999999 19.7865 0.999999 19.7996 0.999999C19.8126 0.999999 19.8256 0.999999 19.8387 0.999999C19.8517 0.999999 19.8647 0.999999 19.8777 0.999999C19.8907 0.999999 19.9036 0.999999 19.9166 0.999999C19.9296 0.999999 19.9425 0.999999 19.9554 0.999999C19.9684 0.999999 19.9813 0.999999 19.9942 0.999999C20.0071 0.999999 20.02 0.999999 20.0329 0.999999C20.0457 0.999999 20.0586 0.999999 20.0714 0.999999C20.0843 0.999999 20.0971 0.999999 20.1099 0.999999C20.1228 0.999999 20.1356 0.999999 20.1484 0.999999C20.1611 0.999999 20.1739 0.999999 20.1867 0.999999C20.1994 0.999999 20.2122 0.999999 20.2249 0.999999C20.2377 0.999999 20.2504 0.999999 20.2631 0.999999C20.2758 0.999999 20.2885 0.999999 20.3012 0.999999C20.3138 0.999999 20.3265 0.999999 20.3392 0.999999C20.3518 0.999999 20.3644 0.999999 20.3771 0.999999C20.3897 0.999999 20.4023 0.999999 20.4149 0.999999C20.4275 0.999999 20.4401 0.999999 20.4526 0.999999C20.4652 0.999999 20.4778 0.999999 20.4903 1C20.5028 1 20.5154 1 20.5279 1C20.5404 1 20.5529 1 20.5654 1C20.5779 1 20.5904 1 20.6028 1C20.6153 1 20.6277 1 20.6402 1C20.6526 1 20.665 1 20.6774 1C20.6898 1 20.7022 1 20.7146 1C20.727 1 20.7393 1 20.7517 1C20.7641 1 20.7764 1 20.7887 1C20.8011 1 20.8134 1 20.8257 1C20.838 1 20.8503 1 20.8625 1C20.8748 1 20.8871 1 20.8993 1C20.9116 1 20.9238 1 20.936 1C20.9483 1 20.9605 1 20.9727 1C20.9849 1 20.9971 1 21.0092 1C21.0214 1 21.0336 1 21.0457 1C21.0579 1 21.07 1 21.0821 1C21.0943 1 21.1064 1 21.1185 1C21.1306 1 21.1426 1 21.1547 1C21.1668 1 21.1789 1 21.1909 1C21.203 1 21.215 1 21.227 1C21.239 1 21.251 1 21.263 1C21.275 1 21.287 1 21.299 1C21.311 1 21.3229 1 21.3349 1C21.3468 1 21.3588 1 21.3707 1C21.3826 1 21.3946 1 21.4065 1C21.4184 1 21.4302 1 21.4421 1C21.454 1 21.4659 1 21.4777 1C21.4896 1 21.5014 1 21.5132 1C21.5251 1 21.5369 1 21.5487 1C21.5605 1 21.5723 1 21.5841 1C21.5959 1 21.6076 1 21.6194 1C21.6312 1 21.6429 1 21.6546 1C21.6664 1 21.6781 1 21.6898 1C21.7015 1 21.7132 1 21.7249 1C21.7366 1 21.7483 1 21.76 1C21.7716 1 21.7833 1 21.7949 1C21.8066 1 21.8182 1 21.8298 1C21.8415 1 21.8531 1 21.8647 1C21.8763 1 21.8879 1 21.8994 1C21.911 1 21.9226 1 21.9341 1C21.9457 1 21.9572 1 21.9688 1C21.9803 1 21.9918 1 22.0033 1C22.0148 1 22.0263 1 22.0378 1C22.0493 1 22.0608 1 22.0723 1C22.0837 1 22.0952 1 22.1066 1C22.1181 1 22.1295 1 22.1409 1C22.1524 1 22.1638 1 22.1752 1C22.1866 1 22.198 1 22.2093 1C22.2207 1 22.2321 1 22.2435 1C22.2548 1 22.2662 1 22.2775 1C22.2888 1 22.3002 1 22.3115 1C22.3228 1 22.3341 1 22.3454 1C22.3567 1 22.368 1 22.3793 1C22.3905 1 22.4018 1 22.4131 1C22.4243 1 22.4356 1 22.4468 1C22.458 1 22.4693 1 22.4805 1C22.4917 1 22.5029 1 22.5141 1C22.5253 1 22.5365 1 22.5476 1C22.5588 1 22.57 1 22.5811 1C22.5923 1 22.6034 1 22.6146 1C22.6257 1 22.6368 1 22.6479 1C22.6591 1 22.6702 1 22.6813 1C22.6924 1 22.7034 1 22.7145 1C22.7256 1 22.7367 1 22.7477 1C22.7588 1 22.7698 1 22.7809 1C22.7919 1 22.8029 1 22.8139 1C22.825 1 22.836 1 22.847 1C22.858 1 22.869 1 22.8799 1C22.8909 1 22.9019 1 22.9128 1C22.9238 1 22.9348 1 22.9457 1C22.9566 1 22.9676 1 22.9785 1C22.9894 1 23.0003 1 23.0112 1C23.0222 1 23.033 1 23.0439 1C23.0548 1 23.0657 1 23.0766 1C23.0874 1 23.0983 1 23.1092 1C23.12 1 23.1308 1 23.1417 1C23.1525 1 23.1633 1 23.1742 1C23.185 1 23.1958 1 23.2066 1C23.2174 1 23.2282 1 23.2389 1C23.2497 1 23.2605 1 23.2713 1C23.282 1 23.2928 1 23.3035 1C23.3143 1 23.325 1 23.3357 1C23.3465 1 23.3572 1 23.3679 1C23.3786 1 23.3893 1 23.4 1C23.4107 1 23.4214 1 23.4321 1C23.4427 1 23.4534 1 23.4641 1C23.4747 1 23.4854 1 23.496 1C23.5067 1 23.5173 1 23.5279 1C23.5386 1 23.5492 1 23.5598 1C23.5704 1 23.581 1 23.5916 1C23.6022 1 23.6128 1 23.6234 1C23.6339 1 23.6445 1 23.6551 1C23.6656 1 23.6762 1 23.6867 1C23.6973 1 23.7078 1 23.7184 1C23.7289 1 23.7394 1 23.7499 1C23.7604 1 23.7709 1 23.7814 1C23.7919 1 23.8024 1 23.8129 1C23.8234 1 23.8339 1 23.8444 1C23.8548 1 23.8653 1 23.8757 1C23.8862 1 23.8966 1 23.9071 1C23.9175 1 23.928 1 23.9384 1C23.9488 1 23.9592 1 23.9696 1C23.98 1 23.9904 1 24.0008 1C24.0112 1 24.0216 1 24.032 1C24.0424 1 24.0528 1 24.0631 1C24.0735 1 24.0839 1 24.0942 1C24.1046 1 24.1149 1 24.1252 1C24.1356 1 24.1459 1 24.1562 1C24.1666 1 24.1769 1 24.1872 1C24.1975 1 24.2078 1 24.2181 1C24.2284 1 24.2387 1 24.249 1C24.2592 1 24.2695 1 24.2798 1C24.2901 1 24.3003 1 24.3106 1C24.3208 1 24.3311 1 24.3413 1C24.3516 1 24.3618 1 24.372 1C24.3823 1 24.3925 1 24.4027 1C24.4129 1 24.4231 1 24.4333 1C24.4435 1 24.4537 1 24.4639 1C24.4741 1 24.4843 1 24.4945 1C24.5046 1 24.5148 1 24.525 1C24.5351 1 24.5453 1 24.5555 1C24.5656 1 24.5758 1 24.5859 1C24.596 1 24.6062 1 24.6163 1C24.6264 1 24.6365 1 24.6467 1C24.6568 1 24.6669 1 24.677 1C24.6871 1 24.6972 1 24.7073 1C24.7174 1 24.7275 1 24.7375 1C24.7476 1 24.7577 1 24.7678 1C24.7778 1 24.7879 1 24.798 1C24.808 1 24.8181 1 24.8281 1C24.8382 1 24.8482 1 24.8582 1C24.8683 1 24.8783 1 24.8883 1C24.8983 1 24.9084 1 24.9184 1C24.9284 1 24.9384 1 24.9484 1C24.9584 1 24.9684 1 24.9784 1C24.9884 1 24.9984 1 25.0083 1C25.0183 1 25.0283 1 25.0383 1C25.0482 1 25.0582 1 25.0682 1C25.0781 1 25.0881 1 25.098 1C25.108 1 25.1179 1 25.1279 1C25.1378 1 25.1477 1 25.1577 1C25.1676 1 25.1775 1 25.1874 1C25.1973 1 25.2073 1 25.2172 1C25.2271 1 25.237 1 25.2469 1C25.2568 1 25.2667 1 25.2766 1C25.2865 1 25.2963 1 25.3062 1C25.3161 1 25.326 1 25.3359 1C25.3457 1 25.3556 1 25.3655 1C25.3753 1 25.3852 1 25.395 1C25.4049 1 25.4147 1 25.4246 1C25.4344 1 25.4443 1 25.4541 1C25.4639 1 25.4738 1 25.4836 1C25.4934 1 25.5032 1 25.5131 1C25.5229 1 25.5327 1 25.5425 1C25.5523 1 25.5621 1 25.5719 1C25.5817 1 25.5915 1 25.6013 1C25.6111 1 25.6209 1 25.6307 1C25.6405 1 25.6502 1 25.66 1C25.6698 1 25.6796 1 25.6893 1C25.6991 1 25.7089 1 25.7186 1C25.7284 1 25.7381 1 25.7479 1C25.7577 1 25.7674 1 25.7771 1C25.7869 1 25.7966 1 25.8064 1C25.8161 1 25.8259 1 25.8356 1C25.8453 1 25.855 1 25.8648 1C25.8745 1 25.8842 1 25.8939 1C25.9036 1 25.9134 1 25.9231 1C25.9328 1 25.9425 1 25.9522 1C25.9619 1 25.9716 1 25.9813 1C25.991 1 26.0007 1 26.0104 1C26.0201 1 26.0298 1 26.0394 1C26.0491 1 26.0588 1 26.0685 1C26.0782 1 26.0878 1 26.0975 1C26.1072 1 26.1169 1 26.1265 1C26.1362 1 26.1458 1 26.1555 1C26.1652 1 26.1748 1 26.1845 1C26.1941 1 26.2038 1 26.2134 1C26.2231 1 26.2327 1 26.2424 1C26.252 1 26.2617 1 26.2713 1C26.2809 1 26.2906 1 26.3002 1C26.3098 1 26.3195 1 26.3291 1C26.3387 1 26.3483 1 26.358 1C26.3676 1 26.3772 1 26.3868 1C26.3964 1 26.4061 1 26.4157 1C26.4253 1 26.4349 1 26.4445 1C26.4541 1 26.4637 1 26.4733 1C26.4829 1 26.4925 1 26.5021 1C26.5117 1 26.5213 1 26.5309 1C26.5405 1 26.5501 1 26.5597 1C26.5693 1 26.5789 1 26.5885 1C26.598 1 26.6076 1 26.6172 1C26.6268 1 26.6364 1 26.6459 1C26.6555 1 26.6651 1 26.6747 1C26.6843 1 26.6938 1 26.7034 1C26.713 1 26.7225 1 26.7321 1C26.7417 1 26.7512 1 26.7608 1C26.7704 1 26.7799 1 26.7895 1C26.7991 1 26.8086 1 26.8182 1C26.8277 1 26.8373 1 26.8468 1C26.8564 1 26.8659 1 26.8755 1C26.8851 1 26.8946 1 26.9042 1C26.9137 1 26.9232 1 26.9328 1C26.9423 1 26.9519 1 26.9614 1C26.971 1 26.9805 1 26.9901 1C26.9996 1 27.0091 1 27.0187 1C27.0282 1 27.0378 1 27.0473 1C27.0568 1 27.0664 1 27.0759 1C27.0854 1 27.095 1 27.1045 1C27.114 1 27.1236 1 27.1331 1C27.1426 1 27.1522 1 27.1617 1C27.1712 1 27.1808 1 27.1903 1C27.1998 1 27.2093 1 27.2189 1C27.2284 1 27.2379 1 27.2475 1C27.257 1 27.2665 1 27.276 1C27.2856 1 27.2951 1 27.3046 1C27.3141 1 27.3237 1 27.3332 1C27.3427 1 27.3522 1 27.3617 1C27.3713 1 27.3808 1 27.3903 1C27.3998 1 27.4093 1 27.4189 1C27.4284 1 27.4379 1 27.4474 1C27.457 1 27.4665 1 27.476 1C27.4855 1 27.495 1 27.5046 1C27.5141 1 27.5236 1 27.5331 1C27.5426 1 27.5522 1 27.5617 1C27.5712 1 27.5807 1 27.5902 1C27.5998 1 27.6093 1 27.6188 1C27.6283 1 27.6378 1 27.6474 1C27.6569 1 27.6664 1 27.6759 1C27.6854 1 27.695 1 27.7045 1C27.714 1 27.7235 1 27.733 1C27.7426 1 27.7521 1 27.7616 1C27.7711 1 27.7807 1 27.7902 1C27.7997 1 27.8092 1 27.8188 1C27.8283 1 27.8378 1 27.8473 1C27.8569 1 27.8664 1 27.8759 1C27.8855 1 27.895 1 27.9045 1C27.914 1 27.9236 1 27.9331 1C27.9426 1 27.9522 1 27.9617 1C27.9712 1 27.9808 1 27.9903 1C27.9998 1 28.0094 1 28.0189 1C28.0285 1 28.038 1 28.0475 1C28.0571 1 28.0666 1 28.0762 1C28.0857 1 28.0952 1 28.1048 1C28.1143 1 28.1239 1 28.1334 1C28.143 1 28.1525 1 28.1621 1C28.1716 1 28.1812 1 28.1907 1C28.2003 1 28.2098 1 28.2194 1C28.2289 1 28.2385 1 28.248 1C28.2576 1 28.2672 1 28.2767 1C28.2863 1 28.2958 1 28.3054 1C28.315 1 28.3245 1 28.3341 1C28.3437 1 28.3532 1 28.3628 1C28.3724 1 28.3819 1 28.3915 1C28.4011 1 28.4107 1 28.4202 1C28.4298 1 28.4394 1 28.449 1C28.4586 1 28.4681 1 28.4777 1C28.4873 1 28.4969 1 28.5065 1C28.5161 1 28.5257 1 28.5353 1C28.5449 1 28.5545 1 28.5641 1C28.5737 1 28.5833 1 28.5929 1C28.6025 1 28.6121 1 28.6217 1C28.6313 1 28.6409 1 28.6505 1C28.6601 1 28.6697 1 28.6793 1C28.689 1 28.6986 1 28.7082 1C28.7178 1 28.7274 1 28.7371 1C28.7467 1 28.7563 1 28.766 1C28.7756 1 28.7852 1 28.7949 1C28.8045 1 28.8141 1 28.8238 1C28.8334 1 28.8431 1 28.8527 1C28.8624 1 28.872 1 28.8817 1C28.8913 1 28.901 1 28.9106 1C28.9203 1 28.93 1 28.9396 1C28.9493 1 28.959 1 28.9686 1C28.9783 1 28.988 1 28.9977 1C29.0073 1 29.017 1 29.0267 1C29.0364 1 29.0461 1 29.0558 1C29.0654 1 29.0751 1 29.0848 1C29.0945 1 29.1042 1 29.1139 1C29.1236 1 29.1333 1 29.143 1C29.1528 1 29.1625 1 29.1722 1C29.1819 1 29.1916 1 29.2013 1C29.2111 1 29.2208 1 29.2305 1C29.2403 1 29.25 1 29.2597 1C29.2695 1 29.2792 1 29.289 1C29.2987 1 29.3084 1 29.3182 1C29.328 1 29.3377 1 29.3475 1C29.3572 1 29.367 1 29.3768 1C29.3865 1 29.3963 1 29.4061 1C29.4158 1 29.4256 1 29.4354 1C29.4452 1 29.455 1 29.4648 1C29.4746 1 29.4844 1 29.4942 1C29.504 1 29.5138 1 29.5236 1C29.5334 1 29.5432 1 29.553 1C29.5628 1 29.5726 1 29.5825 1C29.5923 1 29.6021 1 29.612 1C29.6218 1 29.6316 1 29.6415 1C29.6513 1 29.6612 1 29.671 1C29.6809 1 29.6907 1 29.7006 1C29.7104 1 29.7203 1 29.7302 1C29.74 1 29.7499 1 29.7598 1C29.7697 1 29.7796 1 29.7895 1C29.7993 1 29.8092 1 29.8191 1C29.829 1 29.8389 1 29.8488 1C29.8587 1 29.8687 1 29.8786 1C29.8885 1 29.8984 1 29.9083 1C29.9183 1 29.9282 1 29.9381 1C29.9481 1 29.958 1 29.968 1C29.9779 1 29.9879 1 29.9978 1C30.0078 1 30.0177 1 30.0277 1C30.0377 1 30.0477 1 30.0576 1C30.0676 1 30.0776 1 30.0876 1C30.0976 1 30.1076 1 30.1176 1C30.1276 1 30.1376 1 30.1476 1C30.1576 1 30.1676 1 30.1776 1C30.1876 1 30.1977 1 30.2077 1C30.2177 1 30.2278 1 30.2378 1C30.2479 1 30.2579 1 30.268 1C30.278 1 30.2881 1 30.2982 1C30.3082 1 30.3183 1 30.3284 1C30.3385 1 30.3485 1 30.3586 1C30.3687 1 30.3788 1 30.3889 1C30.399 1 30.4091 1 30.4192 1C30.4293 1 30.4395 1 30.4496 1C30.4597 1 30.4699 1 30.48 1C30.4901 1 30.5003 1 30.5104 1C30.5206 1 30.5307 1 30.5409 1C30.5511 1 30.5612 1 30.5714 1C30.5816 1 30.5918 1 30.6019 1C30.6121 1 30.6223 1 30.6325 1C30.6427 1 30.6529 1 30.6631 1C30.6734 1 30.6836 1 30.6938 1C30.704 1 30.7143 1 30.7245 1C30.7347 1 30.745 1 30.7552 1C30.7655 1 30.7758 1 30.786 1C30.7963 1 30.8066 1 30.8168 1C30.8271 1 30.8374 1 30.8477 1C30.858 1 30.8683 1 30.8786 1C30.8889 1 30.8992 1 30.9096 1C30.9199 1 30.9302 1 30.9405 1C30.9509 1 30.9612 1 30.9716 1C30.9819 1 30.9923 1 31.0026 1C31.013 1 31.0234 1 31.0337 1C31.0441 1 31.0545 1 31.0649 1C31.0753 1 31.0857 1 31.0961 1C31.1065 1 31.1169 1 31.1273 1C31.1378 1 31.1482 1 31.1586 1C31.1691 1 31.1795 1 31.19 1C31.2004 1 31.2109 1 31.2213 1C31.2318 1 31.2423 1 31.2528 1C31.2633 1 31.2737 1 31.2842 1C31.2947 1 31.3052 1 31.3158 1C31.3263 1 31.3368 1 31.3473 1C31.3578 1 31.3684 1 31.3789 1C31.3895 1 31.4 1 31.4106 1C31.4211 1 31.4317 1 31.4423 1C31.4529 1 31.4635 1 31.474 1C31.4846 1 31.4952 1 31.5058 1C31.5165 1 31.5271 1 31.5377 1C31.5483 1 31.559 1 31.5696 1C31.5802 1 31.5909 1 31.6015 1C31.6122 1 31.6229 1 31.6335 1C31.6442 1 31.6549 1 31.6656 1C31.6763 1 31.687 1 31.6977 1C31.7084 1 31.7191 1 31.7298 1C31.7406 1 31.7513 1 31.762 1C31.7728 1 31.7835 1 31.7943 1C31.8051 1 31.8158 1 31.8266 1C31.8374 1 31.8482 1 31.859 1C31.8697 1 31.8806 1 31.8914 1C31.9022 1 31.913 1 31.9238 1L31.9238 3.5Z" fill="#E95D2E"/>
<path d="M4.0003 23C2.61959 23 1.5003 24.1193 1.5003 25.5C1.5003 26.8807 2.61959 28 4.0003 28L4.0003 23ZM21.7695 25.5L21.7695 23C21.7587 23 21.7479 23 21.7371 23C21.7263 23 21.7155 23 21.7047 23C21.6939 23 21.6831 23 21.6723 23C21.6615 23 21.6508 23 21.64 23C21.6292 23 21.6185 23 21.6077 23C21.597 23 21.5863 23 21.5755 23C21.5648 23 21.5541 23 21.5434 23C21.5327 23 21.522 23 21.5113 23C21.5006 23 21.4899 23 21.4792 23C21.4686 23 21.4579 23 21.4472 23C21.4366 23 21.4259 23 21.4153 23C21.4047 23 21.394 23 21.3834 23C21.3728 23 21.3622 23 21.3515 23C21.3409 23 21.3303 23 21.3197 23C21.3092 23 21.2986 23 21.288 23C21.2774 23 21.2669 23 21.2563 23C21.2457 23 21.2352 23 21.2246 23C21.2141 23 21.2036 23 21.193 23C21.1825 23 21.172 23 21.1615 23C21.1509 23 21.1404 23 21.1299 23C21.1194 23 21.109 23 21.0985 23C21.088 23 21.0775 23 21.0671 23C21.0566 23 21.0461 23 21.0357 23C21.0252 23 21.0148 23 21.0043 23C20.9939 23 20.9835 23 20.9731 23C20.9626 23 20.9522 23 20.9418 23C20.9314 23 20.921 23 20.9106 23C20.9002 23 20.8898 23 20.8795 23C20.8691 23 20.8587 23 20.8483 23C20.838 23 20.8276 23 20.8173 23C20.8069 23 20.7966 23 20.7862 23C20.7759 23 20.7656 23 20.7553 23C20.7449 23 20.7346 23 20.7243 23C20.714 23 20.7037 23 20.6934 23C20.6831 23 20.6728 23 20.6626 23C20.6523 23 20.642 23 20.6317 23C20.6215 23 20.6112 23 20.601 23C20.5907 23 20.5805 23 20.5702 23C20.56 23 20.5497 23 20.5395 23C20.5293 23 20.5191 23 20.5089 23C20.4986 23 20.4884 23 20.4782 23C20.468 23 20.4578 23 20.4476 23C20.4375 23 20.4273 23 20.4171 23C20.4069 23 20.3968 23 20.3866 23C20.3764 23 20.3663 23 20.3561 23C20.346 23 20.3358 23 20.3257 23C20.3156 23 20.3054 23 20.2953 23C20.2852 23 20.2751 23 20.2649 23C20.2548 23 20.2447 23 20.2346 23C20.2245 23 20.2144 23 20.2043 23C20.1942 23 20.1842 23 20.1741 23C20.164 23 20.1539 23 20.1439 23C20.1338 23 20.1237 23 20.1137 23C20.1036 23 20.0936 23 20.0835 23C20.0735 23 20.0634 23 20.0534 23C20.0434 23 20.0334 23 20.0233 23C20.0133 23 20.0033 23 19.9933 23C19.9833 23 19.9733 23 19.9633 23C19.9533 23 19.9433 23 19.9333 23C19.9233 23 19.9133 23 19.9033 23C19.8934 23 19.8834 23 19.8734 23C19.8634 23 19.8535 23 19.8435 23C19.8336 23 19.8236 23 19.8137 23C19.8037 23 19.7938 23 19.7838 23C19.7739 23 19.764 23 19.754 23C19.7441 23 19.7342 23 19.7243 23C19.7144 23 19.7045 23 19.6945 23C19.6846 23 19.6747 23 19.6648 23C19.6549 23 19.645 23 19.6352 23C19.6253 23 19.6154 23 19.6055 23C19.5956 23 19.5858 23 19.5759 23C19.566 23 19.5561 23 19.5463 23C19.5364 23 19.5266 23 19.5167 23C19.5069 23 19.497 23 19.4872 23C19.4773 23 19.4675 23 19.4577 23C19.4478 23 19.438 23 19.4282 23C19.4184 23 19.4085 23 19.3987 23C19.3889 23 19.3791 23 19.3693 23C19.3595 23 19.3497 23 19.3399 23C19.3301 23 19.3203 23 19.3105 23C19.3007 23 19.2909 23 19.2811 23C19.2713 23 19.2616 23 19.2518 23C19.242 23 19.2322 23 19.2225 23C19.2127 23 19.2029 23 19.1932 23C19.1834 23 19.1737 23 19.1639 23C19.1541 23 19.1444 23 19.1347 23C19.1249 23 19.1152 23 19.1054 23C19.0957 23 19.086 23 19.0762 23C19.0665 23 19.0568 23 19.047 23C19.0373 23 19.0276 23 19.0179 23C19.0082 23 18.9985 23 18.9888 23C18.979 23 18.9693 23 18.9596 23C18.9499 23 18.9402 23 18.9305 23C18.9208 23 18.9111 23 18.9015 23C18.8918 23 18.8821 23 18.8724 23C18.8627 23 18.853 23 18.8434 23C18.8337 23 18.824 23 18.8143 23C18.8047 23 18.795 23 18.7853 23C18.7757 23 18.766 23 18.7563 23C18.7467 23 18.737 23 18.7274 23C18.7177 23 18.7081 23 18.6984 23C18.6888 23 18.6791 23 18.6695 23C18.6598 23 18.6502 23 18.6406 23C18.6309 23 18.6213 23 18.6117 23C18.602 23 18.5924 23 18.5828 23C18.5732 23 18.5635 23 18.5539 23C18.5443 23 18.5347 23 18.525 23C18.5154 23 18.5058 23 18.4962 23C18.4866 23 18.477 23 18.4674 23C18.4578 23 18.4482 23 18.4386 23C18.429 23 18.4194 23 18.4098 23C18.4002 23 18.3906 23 18.381 23C18.3714 23 18.3618 23 18.3522 23C18.3426 23 18.333 23 18.3234 23C18.3139 23 18.3043 23 18.2947 23C18.2851 23 18.2755 23 18.2659 23C18.2564 23 18.2468 23 18.2372 23C18.2276 23 18.2181 23 18.2085 23C18.1989 23 18.1894 23 18.1798 23C18.1702 23 18.1607 23 18.1511 23C18.1415 23 18.132 23 18.1224 23C18.1129 23 18.1033 23 18.0937 23C18.0842 23 18.0746 23 18.0651 23C18.0555 23 18.046 23 18.0364 23C18.0269 23 18.0173 23 18.0078 23C17.9982 23 17.9887 23 17.9791 23C17.9696 23 17.96 23 17.9505 23C17.9409 23 17.9314 23 17.9219 23C17.9123 23 17.9028 23 17.8932 23C17.8837 23 17.8742 23 17.8646 23C17.8551 23 17.8455 23 17.836 23C17.8265 23 17.8169 23 17.8074 23C17.7979 23 17.7883 23 17.7788 23C17.7693 23 17.7597 23 17.7502 23C17.7407 23 17.7312 23 17.7216 23C17.7121 23 17.7026 23 17.693 23C17.6835 23 17.674 23 17.6645 23C17.6549 23 17.6454 23 17.6359 23C17.6264 23 17.6168 23 17.6073 23C17.5978 23 17.5883 23 17.5788 23C17.5692 23 17.5597 23 17.5502 23C17.5407 23 17.5311 23 17.5216 23C17.5121 23 17.5026 23 17.4931 23C17.4835 23 17.474 23 17.4645 23C17.455 23 17.4455 23 17.4359 23C17.4264 23 17.4169 23 17.4074 23C17.3979 23 17.3883 23 17.3788 23C17.3693 23 17.3598 23 17.3503 23C17.3407 23 17.3312 23 17.3217 23C17.3122 23 17.3027 23 17.2931 23C17.2836 23 17.2741 23 17.2646 23C17.2551 23 17.2455 23 17.236 23C17.2265 23 17.217 23 17.2074 23C17.1979 23 17.1884 23 17.1789 23C17.1694 23 17.1598 23 17.1503 23C17.1408 23 17.1313 23 17.1217 23C17.1122 23 17.1027 23 17.0932 23C17.0836 23 17.0741 23 17.0646 23C17.0551 23 17.0455 23 17.036 23C17.0265 23 17.0169 23 17.0074 23C16.9979 23 16.9883 23 16.9788 23C16.9693 23 16.9597 23 16.9502 23C16.9407 23 16.9311 23 16.9216 23C16.9121 23 16.9025 23 16.893 23C16.8835 23 16.8739 23 16.8644 23C16.8548 23 16.8453 23 16.8358 23C16.8262 23 16.8167 23 16.8071 23C16.7976 23 16.788 23 16.7785 23C16.769 23 16.7594 23 16.7499 23C16.7403 23 16.7308 23 16.7212 23C16.7116 23 16.7021 23 16.6925 23C16.683 23 16.6734 23 16.6639 23C16.6543 23 16.6448 23 16.6352 23C16.6256 23 16.6161 23 16.6065 23C16.5969 23 16.5874 23 16.5778 23C16.5682 23 16.5587 23 16.5491 23C16.5395 23 16.53 23 16.5204 23C16.5108 23 16.5012 23 16.4916 23C16.4821 23 16.4725 23 16.4629 23C16.4533 23 16.4437 23 16.4342 23C16.4246 23 16.415 23 16.4054 23C16.3958 23 16.3862 23 16.3766 23C16.367 23 16.3574 23 16.3478 23C16.3382 23 16.3286 23 16.319 23C16.3094 23 16.2998 23 16.2902 23C16.2806 23 16.271 23 16.2614 23C16.2518 23 16.2421 23 16.2325 23C16.2229 23 16.2133 23 16.2037 23C16.194 23 16.1844 23 16.1748 23C16.1652 23 16.1555 23 16.1459 23C16.1363 23 16.1266 23 16.117 23C16.1074 23 16.0977 23 16.0881 23C16.0784 23 16.0688 23 16.0591 23C16.0495 23 16.0398 23 16.0302 23C16.0205 23 16.0109 23 16.0012 23C15.9916 23 15.9819 23 15.9722 23C15.9626 23 15.9529 23 15.9432 23C15.9335 23 15.9239 23 15.9142 23C15.9045 23 15.8948 23 15.8851 23C15.8755 23 15.8658 23 15.8561 23C15.8464 23 15.8367 23 15.827 23C15.8173 23 15.8076 23 15.7979 23C15.7882 23 15.7785 23 15.7688 23C15.7591 23 15.7494 23 15.7396 23C15.7299 23 15.7202 23 15.7105 23C15.7007 23 15.691 23 15.6813 23C15.6716 23 15.6618 23 15.6521 23C15.6423 23 15.6326 23 15.6229 23C15.6131 23 15.6034 23 15.5936 23C15.5838 23 15.5741 23 15.5643 23C15.5546 23 15.5448 23 15.535 23C15.5253 23 15.5155 23 15.5057 23C15.4959 23 15.4862 23 15.4764 23C15.4666 23 15.4568 23 15.447 23C15.4372 23 15.4274 23 15.4176 23C15.4078 23 15.398 23 15.3882 23C15.3784 23 15.3686 23 15.3588 23C15.3489 23 15.3391 23 15.3293 23C15.3195 23 15.3096 23 15.2998 23C15.29 23 15.2801 23 15.2703 23C15.2604 23 15.2506 23 15.2407 23C15.2309 23 15.221 23 15.2112 23C15.2013 23 15.1914 23 15.1816 23C15.1717 23 15.1618 23 15.1519 23C15.142 23 15.1322 23 15.1223 23C15.1124 23 15.1025 23 15.0926 23C15.0827 23 15.0728 23 15.0629 23C15.053 23 15.0431 23 15.0331 23C15.0232 23 15.0133 23 15.0034 23C14.9934 23 14.9835 23 14.9736 23C14.9636 23 14.9537 23 14.9437 23C14.9338 23 14.9238 23 14.9139 23C14.9039 23 14.8939 23 14.884 23C14.874 23 14.864 23 14.854 23C14.8441 23 14.8341 23 14.8241 23C14.8141 23 14.8041 23 14.7941 23C14.7841 23 14.7741 23 14.7641 23C14.7541 23 14.744 23 14.734 23C14.724 23 14.714 23 14.7039 23C14.6939 23 14.6839 23 14.6738 23C14.6638 23 14.6537 23 14.6437 23C14.6336 23 14.6235 23 14.6135 23C14.6034 23 14.5933 23 14.5832 23C14.5732 23 14.5631 23 14.553 23C14.5429 23 14.5328 23 14.5227 23C14.5126 23 14.5025 23 14.4924 23C14.4823 23 14.4721 23 14.462 23C14.4519 23 14.4417 23 14.4316 23C14.4215 23 14.4113 23 14.4012 23C14.391 23 14.3808 23 14.3707 23C14.3605 23 14.3503 23 14.3402 23C14.33 23 14.3198 23 14.3096 23C14.2994 23 14.2892 23 14.279 23C14.2688 23 14.2586 23 14.2484 23C14.2382 23 14.228 23 14.2177 23C14.2075 23 14.1973 23 14.187 23C14.1768 23 14.1665 23 14.1563 23C14.146 23 14.1358 23 14.1255 23C14.1152 23 14.1049 23 14.0947 23C14.0844 23 14.0741 23 14.0638 23C14.0535 23 14.0432 23 14.0329 23C14.0226 23 14.0123 23 14.0019 23C13.9916 23 13.9813 23 13.9709 23C13.9606 23 13.9503 23 13.9399 23C13.9296 23 13.9192 23 13.9088 23C13.8985 23 13.8881 23 13.8777 23C13.8673 23 13.8569 23 13.8465 23C13.8361 23 13.8257 23 13.8153 23C13.8049 23 13.7945 23 13.7841 23C13.7737 23 13.7632 23 13.7528 23C13.7423 23 13.7319 23 13.7214 23C13.711 23 13.7005 23 13.6901 23C13.6796 23 13.6691 23 13.6586 23C13.6481 23 13.6376 23 13.6271 23C13.6166 23 13.6061 23 13.5956 23C13.5851 23 13.5746 23 13.5641 23C13.5535 23 13.543 23 13.5324 23C13.5219 23 13.5113 23 13.5008 23C13.4902 23 13.4796 23 13.4691 23C13.4585 23 13.4479 23 13.4373 23C13.4267 23 13.4161 23 13.4055 23C13.3949 23 13.3843 23 13.3736 23C13.363 23 13.3524 23 13.3417 23C13.3311 23 13.3204 23 13.3098 23C13.2991 23 13.2884 23 13.2778 23C13.2671 23 13.2564 23 13.2457 23C13.235 23 13.2243 23 13.2136 23C13.2029 23 13.1922 23 13.1814 23C13.1707 23 13.16 23 13.1492 23C13.1385 23 13.1277 23 13.117 23C13.1062 23 13.0954 23 13.0846 23C13.0739 23 13.0631 23 13.0523 23C13.0415 23 13.0307 23 13.0199 23C13.009 23 12.9982 23 12.9874 23C12.9765 23 12.9657 23 12.9549 23C12.944 23 12.9331 23 12.9223 23C12.9114 23 12.9005 23 12.8896 23C12.8788 23 12.8679 23 12.857 23C12.846 23 12.8351 23 12.8242 23C12.8133 23 12.8023 23 12.7914 23C12.7805 23 12.7695 23 12.7585 23C12.7476 23 12.7366 23 12.7256 23C12.7147 23 12.7037 23 12.6927 23C12.6817 23 12.6707 23 12.6596 23C12.6486 23 12.6376 23 12.6266 23C12.6155 23 12.6045 23 12.5934 23C12.5824 23 12.5713 23 12.5602 23C12.5491 23 12.5381 23 12.527 23C12.5159 23 12.5048 23 12.4937 23C12.4825 23 12.4714 23 12.4603 23C12.4491 23 12.438 23 12.4268 23C12.4157 23 12.4045 23 12.3934 23C12.3822 23 12.371 23 12.3598 23C12.3486 23 12.3374 23 12.3262 23C12.315 23 12.3037 23 12.2925 23C12.2813 23 12.27 23 12.2588 23C12.2475 23 12.2363 23 12.225 23C12.2137 23 12.2024 23 12.1911 23C12.1798 23 12.1685 23 12.1572 23C12.1459 23 12.1345 23 12.1232 23C12.1119 23 12.1005 23 12.0892 23C12.0778 23 12.0664 23 12.0551 23C12.0437 23 12.0323 23 12.0209 23C12.0095 23 11.9981 23 11.9866 23C11.9752 23 11.9638 23 11.9523 23C11.9409 23 11.9294 23 11.918 23C11.9065 23 11.895 23 11.8835 23C11.872 23 11.8605 23 11.849 23C11.8375 23 11.826 23 11.8145 23C11.8029 23 11.7914 23 11.7798 23C11.7683 23 11.7567 23 11.7451 23C11.7336 23 11.722 23 11.7104 23C11.6988 23 11.6872 23 11.6755 23C11.6639 23 11.6523 23 11.6406 23C11.629 23 11.6173 23 11.6057 23C11.594 23 11.5823 23 11.5706 23C11.5589 23 11.5472 23 11.5355 23C11.5238 23 11.5121 23 11.5004 23C11.4886 23 11.4769 23 11.4651 23C11.4533 23 11.4416 23 11.4298 23C11.418 23 11.4062 23 11.3944 23C11.3826 23 11.3708 23 11.359 23C11.3471 23 11.3353 23 11.3234 23C11.3116 23 11.2997 23 11.2878 23C11.2759 23 11.2641 23 11.2522 23C11.2403 23 11.2283 23 11.2164 23C11.2045 23 11.1925 23 11.1806 23C11.1686 23 11.1567 23 11.1447 23C11.1327 23 11.1207 23 11.1088 23C11.0968 23 11.0847 23 11.0727 23C11.0607 23 11.0487 23 11.0366 23C11.0246 23 11.0125 23 11.0004 23C10.9884 23 10.9763 23 10.9642 23C10.9521 23 10.94 23 10.9278 23C10.9157 23 10.9036 23 10.8914 23C10.8793 23 10.8671 23 10.8549 23C10.8428 23 10.8306 23 10.8184 23C10.8062 23 10.794 23 10.7817 23C10.7695 23 10.7573 23 10.745 23C10.7328 23 10.7205 23 10.7082 23C10.696 23 10.6837 23 10.6714 23C10.6591 23 10.6468 23 10.6344 23C10.6221 23 10.6098 23 10.5974 23C10.585 23 10.5727 23 10.5603 23C10.5479 23 10.5355 23 10.5231 23C10.5107 23 10.4983 23 10.4859 23C10.4734 23 10.461 23 10.4485 23C10.4361 23 10.4236 23 10.4111 23C10.3986 23 10.3861 23 10.3736 23C10.3611 23 10.3485 23 10.336 23C10.3235 23 10.3109 23 10.2983 23C10.2858 23 10.2732 23 10.2606 23C10.248 23 10.2354 23 10.2228 23C10.2101 23 10.1975 23 10.1849 23C10.1722 23 10.1595 23 10.1469 23C10.1342 23 10.1215 23 10.1088 23C10.0961 23 10.0834 23 10.0706 23C10.0579 23 10.0451 23 10.0324 23C10.0196 23 10.0068 23 9.99406 23C9.98127 23 9.96846 23 9.95564 23C9.94283 23 9.92999 23 9.91715 23C9.9043 23 9.89144 23 9.87856 23C9.86569 23 9.8528 23 9.8399 23C9.82699 23 9.81407 23 9.80114 23C9.78821 23 9.77526 23 9.7623 23C9.74934 23 9.73636 23 9.72337 23C9.71038 23 9.69738 23 9.68436 23C9.67134 23 9.65831 23 9.64526 23C9.63221 23 9.61915 23 9.60607 23C9.59299 23 9.5799 23 9.56679 23C9.55368 23 9.54056 23 9.52742 23C9.51429 23 9.50114 23 9.48797 23C9.4748 23 9.46162 23 9.44843 23C9.43523 23 9.42202 23 9.40879 23C9.39557 23 9.38232 23 9.36907 23C9.35581 23 9.34254 23 9.32925 23C9.31597 23 9.30266 23 9.28935 23C9.27603 23 9.2627 23 9.24935 23C9.236 23 9.22264 23 9.20926 23C9.19589 23 9.18249 23 9.16908 23C9.15568 23 9.14225 23 9.12881 23C9.11537 23 9.10192 23 9.08845 23C9.07498 23 9.06149 23 9.04799 23C9.03449 23 9.02097 23 9.00744 23C8.99391 23 8.98036 23 8.9668 23C8.95323 23 8.93965 23 8.92606 23C8.91246 23 8.89885 23 8.88522 23C8.8716 23 8.85796 23 8.8443 23C8.83064 23 8.81697 23 8.80328 23C8.78959 23 8.77588 23 8.76216 23C8.74844 23 8.7347 23 8.72094 23C8.70719 23 8.69342 23 8.67963 23C8.66585 23 8.65205 23 8.63823 23C8.62441 23 8.61057 23 8.59672 23C8.58287 23 8.56901 23 8.55512 23C8.54124 23 8.52734 23 8.51342 23C8.49951 23 8.48558 23 8.47163 23C8.45768 23 8.44372 23 8.42973 23C8.41575 23 8.40175 23 8.38774 23C8.37373 23 8.35969 23 8.34565 23C8.3316 23 8.31754 23 8.30346 23C8.28937 23 8.27528 23 8.26116 23C8.24705 23 8.23292 23 8.21877 23C8.20462 23 8.19046 23 8.17628 23C8.1621 23 8.1479 23 8.13369 23C8.11947 23 8.10524 23 8.09099 23C8.07674 23 8.06248 23 8.04819 23C8.03391 23 8.01961 23 8.00529 23C7.99098 23 7.97664 23 7.96229 23C7.94794 23 7.93357 23 7.91919 23C7.90481 23 7.8904 23 7.87598 23C7.86156 23 7.84713 23 7.83267 23C7.81822 23 7.80375 23 7.78926 23C7.77477 23 7.76026 23 7.74574 23C7.73122 23 7.71668 23 7.70212 23C7.68756 23 7.67298 23 7.65839 23C7.6438 23 7.62918 23 7.61456 23C7.59993 23 7.58528 23 7.57062 23C7.55595 23 7.54127 23 7.52657 23C7.51187 23 7.49716 23 7.48242 23C7.46769 23 7.45293 23 7.43816 23C7.42339 23 7.4086 23 7.3938 23C7.37899 23 7.36417 23 7.34932 23C7.33448 23 7.31962 23 7.30474 23C7.28987 23 7.27497 23 7.26006 23C7.24514 23 7.23021 23 7.21526 23C7.20031 23 7.18534 23 7.17035 23C7.15537 23 7.14036 23 7.12534 23C7.11031 23 7.09527 23 7.08021 23C7.06515 23 7.05007 23 7.03498 23C7.01988 23 7.00476 23 6.98963 23C6.9745 23 6.95934 23 6.94417 23C6.929 23 6.91381 23 6.89861 23C6.8834 23 6.86817 23 6.85293 23C6.83768 23 6.82242 23 6.80714 23C6.79185 23 6.77655 23 6.76123 23C6.74591 23 6.73057 23 6.71522 23C6.69986 23 6.68448 23 6.66909 23C6.65369 23 6.63828 23 6.62285 23C6.60741 23 6.59196 23 6.57649 23C6.56102 23 6.54553 23 6.53002 23C6.51451 23 6.49898 23 6.48344 23C6.46789 23 6.45232 23 6.43674 23C6.42115 23 6.40555 23 6.38992 23C6.3743 23 6.35866 23 6.34299 23C6.32733 23 6.31165 23 6.29595 23C6.28025 23 6.26453 23 6.24879 23C6.23305 23 6.21729 23 6.20151 23C6.18573 23 6.16993 23 6.15411 23C6.13829 23 6.12246 23 6.1066 23C6.09074 23 6.07487 23 6.05897 23C6.04307 23 6.02716 23 6.01122 23C5.99529 23 5.97933 23 5.96335 23C5.94738 23 5.93138 23 5.91537 23C5.89935 23 5.88332 23 5.86726 23C5.85121 23 5.83513 23 5.81904 23C5.80295 23 5.78683 23 5.7707 23C5.75456 23 5.73841 23 5.72223 23C5.70606 23 5.68986 23 5.67365 23C5.65743 23 5.6412 23 5.62494 23C5.60869 23 5.59241 23 5.57611 23C5.55982 23 5.5435 23 5.52716 23C5.51083 23 5.49447 23 5.47809 23C5.46172 23 5.44532 23 5.4289 23C5.41248 23 5.39604 23 5.37959 23C5.36312 23 5.34665 23 5.33014 23C5.31364 23 5.29712 23 5.28058 23C5.26404 23 5.24748 23 5.2309 23C5.21431 23 5.19771 23 5.18109 23C5.16446 23 5.14782 23 5.13115 23C5.11448 23 5.0978 23 5.08109 23C5.06438 23 5.04765 23 5.0309 23C5.01415 23 4.99738 23 4.98059 23C4.9638 23 4.94699 23 4.93015 23C4.91332 23 4.89647 23 4.87959 23C4.86271 23 4.84582 23 4.8289 23C4.81198 23 4.79504 23 4.77808 23C4.76112 23 4.74414 23 4.72713 23C4.71013 23 4.69311 23 4.67606 23C4.65902 23 4.64195 23 4.62486 23C4.60777 23 4.59066 23 4.57353 23C4.5564 23 4.53925 23 4.52207 23C4.5049 23 4.4877 23 4.47048 23C4.45326 23 4.43602 23 4.41876 23C4.4015 23 4.38422 23 4.36691 23C4.34961 23 4.33229 23 4.31494 23C4.29759 23 4.28022 23 4.26283 23C4.24543 23 4.22802 23 4.21058 23C4.19315 23 4.17569 23 4.15821 23C4.14073 23 4.12323 23 4.10571 23C4.08819 23 4.07064 23 4.05307 23C4.03551 23 4.01792 23 4.0003 23L4.0003 25.5L4.0003 28C4.01792 28 4.03551 28 4.05307 28C4.07064 28 4.08819 28 4.10571 28C4.12323 28 4.14073 28 4.15821 28C4.17569 28 4.19315 28 4.21058 28C4.22802 28 4.24543 28 4.26283 28C4.28022 28 4.29759 28 4.31494 28C4.33228 28 4.34961 28 4.36691 28C4.38422 28 4.4015 28 4.41876 28C4.43602 28 4.45326 28 4.47048 28C4.4877 28 4.5049 28 4.52207 28C4.53925 28 4.5564 28 4.57353 28C4.59066 28 4.60777 28 4.62486 28C4.64195 28 4.65902 28 4.67606 28C4.69311 28 4.71013 28 4.72713 28C4.74414 28 4.76112 28 4.77808 28C4.79504 28 4.81198 28 4.8289 28C4.84582 28 4.86271 28 4.87959 28C4.89647 28 4.91332 28 4.93015 28C4.94699 28 4.9638 28 4.98059 28C4.99738 28 5.01415 28 5.0309 28C5.04765 28 5.06438 28 5.08109 28C5.0978 28 5.11448 28 5.13115 28C5.14782 28 5.16446 28 5.18109 28C5.19771 28 5.21431 28 5.2309 28C5.24748 28 5.26404 28 5.28058 28C5.29712 28 5.31364 28 5.33014 28C5.34665 28 5.36312 28 5.37959 28C5.39604 28 5.41248 28 5.4289 28C5.44532 28 5.46172 28 5.47809 28C5.49447 28 5.51083 28 5.52716 28C5.5435 28 5.55982 28 5.57611 28C5.59241 28 5.60869 28 5.62494 28C5.6412 28 5.65743 28 5.67365 28C5.68986 28 5.70606 28 5.72223 28C5.73841 28 5.75456 28 5.7707 28C5.78683 28 5.80295 28 5.81904 28C5.83513 28 5.85121 28 5.86726 28C5.88332 28 5.89935 28 5.91537 28C5.93138 28 5.94738 28 5.96335 28C5.97933 28 5.99528 28 6.01122 28C6.02716 28 6.04307 28 6.05897 28C6.07487 28 6.09074 28 6.1066 28C6.12246 28 6.13829 28 6.15411 28C6.16993 28 6.18573 28 6.20151 28C6.21729 28 6.23305 28 6.24879 28C6.26453 28 6.28025 28 6.29595 28C6.31165 28 6.32733 28 6.34299 28C6.35866 28 6.3743 28 6.38992 28C6.40555 28 6.42115 28 6.43674 28C6.45232 28 6.46789 28 6.48344 28C6.49898 28 6.51451 28 6.53002 28C6.54553 28 6.56102 28 6.57649 28C6.59196 28 6.60741 28 6.62285 28C6.63828 28 6.65369 28 6.66909 28C6.68448 28 6.69986 28 6.71522 28C6.73057 28 6.74591 28 6.76123 28C6.77655 28 6.79185 28 6.80714 28C6.82242 28 6.83768 28 6.85293 28C6.86817 28 6.8834 28 6.89861 28C6.91381 28 6.929 28 6.94417 28C6.95934 28 6.9745 28 6.98963 28C7.00476 28 7.01988 28 7.03497 28C7.05007 28 7.06515 28 7.08021 28C7.09527 28 7.11031 28 7.12534 28C7.14036 28 7.15536 28 7.17035 28C7.18534 28 7.20031 28 7.21526 28C7.23021 28 7.24514 28 7.26006 28C7.27497 28 7.28987 28 7.30474 28C7.31962 28 7.33448 28 7.34932 28C7.36417 28 7.37899 28 7.3938 28C7.4086 28 7.42339 28 7.43816 28C7.45293 28 7.46769 28 7.48242 28C7.49716 28 7.51187 28 7.52657 28C7.54127 28 7.55595 28 7.57062 28C7.58528 28 7.59993 28 7.61456 28C7.62918 28 7.6438 28 7.65839 28C7.67298 28 7.68756 28 7.70212 28C7.71668 28 7.73122 28 7.74574 28C7.76026 28 7.77477 28 7.78926 28C7.80375 28 7.81822 28 7.83267 28C7.84713 28 7.86156 28 7.87598 28C7.8904 28 7.90481 28 7.91919 28C7.93357 28 7.94794 28 7.96229 28C7.97664 28 7.99098 28 8.00529 28C8.01961 28 8.03391 28 8.04819 28C8.06248 28 8.07674 28 8.09099 28C8.10524 28 8.11947 28 8.13369 28C8.1479 28 8.1621 28 8.17628 28C8.19046 28 8.20462 28 8.21877 28C8.23292 28 8.24705 28 8.26116 28C8.27528 28 8.28937 28 8.30346 28C8.31754 28 8.3316 28 8.34565 28C8.35969 28 8.37373 28 8.38774 28C8.40175 28 8.41575 28 8.42973 28C8.44371 28 8.45768 28 8.47163 28C8.48558 28 8.49951 28 8.51342 28C8.52734 28 8.54124 28 8.55512 28C8.56901 28 8.58287 28 8.59672 28C8.61057 28 8.62441 28 8.63823 28C8.65205 28 8.66585 28 8.67963 28C8.69342 28 8.70719 28 8.72094 28C8.7347 28 8.74843 28 8.76216 28C8.77588 28 8.78959 28 8.80327 28C8.81696 28 8.83064 28 8.8443 28C8.85796 28 8.8716 28 8.88522 28C8.89885 28 8.91246 28 8.92606 28C8.93965 28 8.95323 28 8.96679 28C8.98036 28 8.99391 28 9.00744 28C9.02097 28 9.03449 28 9.04799 28C9.06149 28 9.07498 28 9.08845 28C9.10192 28 9.11537 28 9.12881 28C9.14225 28 9.15567 28 9.16908 28C9.18249 28 9.19589 28 9.20926 28C9.22264 28 9.236 28 9.24935 28C9.2627 28 9.27603 28 9.28935 28C9.30266 28 9.31597 28 9.32925 28C9.34254 28 9.35581 28 9.36907 28C9.38232 28 9.39556 28 9.40879 28C9.42202 28 9.43523 28 9.44843 28C9.46162 28 9.4748 28 9.48797 28C9.50114 28 9.51429 28 9.52742 28C9.54056 28 9.55368 28 9.56679 28C9.5799 28 9.59299 28 9.60607 28C9.61915 28 9.63221 28 9.64526 28C9.65831 28 9.67134 28 9.68436 28C9.69738 28 9.71038 28 9.72337 28C9.73636 28 9.74934 28 9.7623 28C9.77526 28 9.78821 28 9.80114 28C9.81407 28 9.82699 28 9.8399 28C9.8528 28 9.86569 28 9.87856 28C9.89144 28 9.9043 28 9.91715 28C9.92999 28 9.94283 28 9.95564 28C9.96846 28 9.98127 28 9.99406 28C10.0068 28 10.0196 28 10.0324 28C10.0451 28 10.0579 28 10.0706 28C10.0834 28 10.0961 28 10.1088 28C10.1215 28 10.1342 28 10.1469 28C10.1595 28 10.1722 28 10.1849 28C10.1975 28 10.2101 28 10.2228 28C10.2354 28 10.248 28 10.2606 28C10.2732 28 10.2858 28 10.2983 28C10.3109 28 10.3235 28 10.336 28C10.3485 28 10.3611 28 10.3736 28C10.3861 28 10.3986 28 10.4111 28C10.4236 28 10.4361 28 10.4485 28C10.461 28 10.4734 28 10.4859 28C10.4983 28 10.5107 28 10.5231 28C10.5355 28 10.5479 28 10.5603 28C10.5727 28 10.585 28 10.5974 28C10.6098 28 10.6221 28 10.6344 28C10.6468 28 10.6591 28 10.6714 28C10.6837 28 10.696 28 10.7082 28C10.7205 28 10.7328 28 10.745 28C10.7573 28 10.7695 28 10.7817 28C10.794 28 10.8062 28 10.8184 28C10.8306 28 10.8428 28 10.8549 28C10.8671 28 10.8793 28 10.8914 28C10.9036 28 10.9157 28 10.9278 28C10.94 28 10.9521 28 10.9642 28C10.9763 28 10.9884 28 11.0004 28C11.0125 28 11.0246 28 11.0366 28C11.0487 28 11.0607 28 11.0727 28C11.0847 28 11.0968 28 11.1088 28C11.1207 28 11.1327 28 11.1447 28C11.1567 28 11.1686 28 11.1806 28C11.1925 28 11.2045 28 11.2164 28C11.2283 28 11.2403 28 11.2522 28C11.2641 28 11.2759 28 11.2878 28C11.2997 28 11.3116 28 11.3234 28C11.3353 28 11.3471 28 11.359 28C11.3708 28 11.3826 28 11.3944 28C11.4062 28 11.418 28 11.4298 28C11.4416 28 11.4533 28 11.4651 28C11.4769 28 11.4886 28 11.5004 28C11.5121 28 11.5238 28 11.5355 28C11.5472 28 11.5589 28 11.5706 28C11.5823 28 11.594 28 11.6057 28C11.6173 28 11.629 28 11.6406 28C11.6523 28 11.6639 28 11.6755 28C11.6872 28 11.6988 28 11.7104 28C11.722 28 11.7336 28 11.7451 28C11.7567 28 11.7683 28 11.7798 28C11.7914 28 11.8029 28 11.8145 28C11.826 28 11.8375 28 11.849 28C11.8605 28 11.872 28 11.8835 28C11.895 28 11.9065 28 11.918 28C11.9294 28 11.9409 28 11.9523 28C11.9638 28 11.9752 28 11.9866 28C11.9981 28 12.0095 28 12.0209 28C12.0323 28 12.0437 28 12.055 28C12.0664 28 12.0778 28 12.0892 28C12.1005 28 12.1119 28 12.1232 28C12.1345 28 12.1459 28 12.1572 28C12.1685 28 12.1798 28 12.1911 28C12.2024 28 12.2137 28 12.225 28C12.2363 28 12.2475 28 12.2588 28C12.27 28 12.2813 28 12.2925 28C12.3037 28 12.315 28 12.3262 28C12.3374 28 12.3486 28 12.3598 28C12.371 28 12.3822 28 12.3934 28C12.4045 28 12.4157 28 12.4268 28C12.438 28 12.4491 28 12.4603 28C12.4714 28 12.4825 28 12.4937 28C12.5048 28 12.5159 28 12.527 28C12.5381 28 12.5491 28 12.5602 28C12.5713 28 12.5824 28 12.5934 28C12.6045 28 12.6155 28 12.6266 28C12.6376 28 12.6486 28 12.6596 28C12.6707 28 12.6817 28 12.6927 28C12.7037 28 12.7147 28 12.7256 28C12.7366 28 12.7476 28 12.7585 28C12.7695 28 12.7805 28 12.7914 28C12.8023 28 12.8133 28 12.8242 28C12.8351 28 12.846 28 12.857 28C12.8679 28 12.8788 28 12.8896 28C12.9005 28 12.9114 28 12.9223 28C12.9331 28 12.944 28 12.9549 28C12.9657 28 12.9765 28 12.9874 28C12.9982 28 13.009 28 13.0199 28C13.0307 28 13.0415 28 13.0523 28C13.0631 28 13.0739 28 13.0846 28C13.0954 28 13.1062 28 13.117 28C13.1277 28 13.1385 28 13.1492 28C13.16 28 13.1707 28 13.1814 28C13.1922 28 13.2029 28 13.2136 28C13.2243 28 13.235 28 13.2457 28C13.2564 28 13.2671 28 13.2778 28C13.2884 28 13.2991 28 13.3098 28C13.3204 28 13.3311 28 13.3417 28C13.3524 28 13.363 28 13.3736 28C13.3843 28 13.3949 28 13.4055 28C13.4161 28 13.4267 28 13.4373 28C13.4479 28 13.4585 28 13.4691 28C13.4796 28 13.4902 28 13.5008 28C13.5113 28 13.5219 28 13.5324 28C13.543 28 13.5535 28 13.5641 28C13.5746 28 13.5851 28 13.5956 28C13.6061 28 13.6166 28 13.6271 28C13.6376 28 13.6481 28 13.6586 28C13.6691 28 13.6796 28 13.6901 28C13.7005 28 13.711 28 13.7214 28C13.7319 28 13.7423 28 13.7528 28C13.7632 28 13.7737 28 13.7841 28C13.7945 28 13.8049 28 13.8153 28C13.8257 28 13.8361 28 13.8465 28C13.8569 28 13.8673 28 13.8777 28C13.8881 28 13.8985 28 13.9088 28C13.9192 28 13.9296 28 13.9399 28C13.9503 28 13.9606 28 13.9709 28C13.9813 28 13.9916 28 14.0019 28C14.0123 28 14.0226 28 14.0329 28C14.0432 28 14.0535 28 14.0638 28C14.0741 28 14.0844 28 14.0947 28C14.1049 28 14.1152 28 14.1255 28C14.1358 28 14.146 28 14.1563 28C14.1665 28 14.1768 28 14.187 28C14.1973 28 14.2075 28 14.2177 28C14.228 28 14.2382 28 14.2484 28C14.2586 28 14.2688 28 14.279 28C14.2892 28 14.2994 28 14.3096 28C14.3198 28 14.33 28 14.3402 28C14.3503 28 14.3605 28 14.3707 28C14.3808 28 14.391 28 14.4012 28C14.4113 28 14.4215 28 14.4316 28C14.4417 28 14.4519 28 14.462 28C14.4721 28 14.4823 28 14.4924 28C14.5025 28 14.5126 28 14.5227 28C14.5328 28 14.5429 28 14.553 28C14.5631 28 14.5732 28 14.5832 28C14.5933 28 14.6034 28 14.6135 28C14.6235 28 14.6336 28 14.6437 28C14.6537 28 14.6638 28 14.6738 28C14.6839 28 14.6939 28 14.7039 28C14.714 28 14.724 28 14.734 28C14.744 28 14.7541 28 14.7641 28C14.7741 28 14.7841 28 14.7941 28C14.8041 28 14.8141 28 14.8241 28C14.8341 28 14.8441 28 14.854 28C14.864 28 14.874 28 14.884 28C14.8939 28 14.9039 28 14.9139 28C14.9238 28 14.9338 28 14.9437 28C14.9537 28 14.9636 28 14.9736 28C14.9835 28 14.9934 28 15.0034 28C15.0133 28 15.0232 28 15.0331 28C15.0431 28 15.053 28 15.0629 28C15.0728 28 15.0827 28 15.0926 28C15.1025 28 15.1124 28 15.1223 28C15.1322 28 15.142 28 15.1519 28C15.1618 28 15.1717 28 15.1816 28C15.1914 28 15.2013 28 15.2112 28C15.221 28 15.2309 28 15.2407 28C15.2506 28 15.2604 28 15.2703 28C15.2801 28 15.29 28 15.2998 28C15.3096 28 15.3195 28 15.3293 28C15.3391 28 15.3489 28 15.3588 28C15.3686 28 15.3784 28 15.3882 28C15.398 28 15.4078 28 15.4176 28C15.4274 28 15.4372 28 15.447 28C15.4568 28 15.4666 28 15.4764 28C15.4862 28 15.4959 28 15.5057 28C15.5155 28 15.5253 28 15.535 28C15.5448 28 15.5546 28 15.5643 28C15.5741 28 15.5838 28 15.5936 28C15.6034 28 15.6131 28 15.6229 28C15.6326 28 15.6423 28 15.6521 28C15.6618 28 15.6716 28 15.6813 28C15.691 28 15.7007 28 15.7105 28C15.7202 28 15.7299 28 15.7396 28C15.7494 28 15.7591 28 15.7688 28C15.7785 28 15.7882 28 15.7979 28C15.8076 28 15.8173 28 15.827 28C15.8367 28 15.8464 28 15.8561 28C15.8658 28 15.8755 28 15.8851 28C15.8948 28 15.9045 28 15.9142 28C15.9239 28 15.9335 28 15.9432 28C15.9529 28 15.9626 28 15.9722 28C15.9819 28 15.9916 28 16.0012 28C16.0109 28 16.0205 28 16.0302 28C16.0398 28 16.0495 28 16.0591 28C16.0688 28 16.0784 28 16.0881 28C16.0977 28 16.1074 28 16.117 28C16.1266 28 16.1363 28 16.1459 28C16.1555 28 16.1652 28 16.1748 28C16.1844 28 16.194 28 16.2037 28C16.2133 28 16.2229 28 16.2325 28C16.2421 28 16.2518 28 16.2614 28C16.271 28 16.2806 28 16.2902 28C16.2998 28 16.3094 28 16.319 28C16.3286 28 16.3382 28 16.3478 28C16.3574 28 16.367 28 16.3766 28C16.3862 28 16.3958 28 16.4054 28C16.415 28 16.4246 28 16.4342 28C16.4437 28 16.4533 28 16.4629 28C16.4725 28 16.4821 28 16.4916 28C16.5012 28 16.5108 28 16.5204 28C16.53 28 16.5395 28 16.5491 28C16.5587 28 16.5682 28 16.5778 28C16.5874 28 16.5969 28 16.6065 28C16.6161 28 16.6256 28 16.6352 28C16.6448 28 16.6543 28 16.6639 28C16.6734 28 16.683 28 16.6925 28C16.7021 28 16.7116 28 16.7212 28C16.7308 28 16.7403 28 16.7499 28C16.7594 28 16.769 28 16.7785 28C16.788 28 16.7976 28 16.8071 28C16.8167 28 16.8262 28 16.8358 28C16.8453 28 16.8548 28 16.8644 28C16.8739 28 16.8835 28 16.893 28C16.9025 28 16.9121 28 16.9216 28C16.9311 28 16.9407 28 16.9502 28C16.9597 28 16.9693 28 16.9788 28C16.9883 28 16.9979 28 17.0074 28C17.0169 28 17.0265 28 17.036 28C17.0455 28 17.0551 28 17.0646 28C17.0741 28 17.0836 28 17.0932 28C17.1027 28 17.1122 28 17.1217 28C17.1313 28 17.1408 28 17.1503 28C17.1598 28 17.1694 28 17.1789 28C17.1884 28 17.1979 28 17.2074 28C17.217 28 17.2265 28 17.236 28C17.2455 28 17.2551 28 17.2646 28C17.2741 28 17.2836 28 17.2931 28C17.3027 28 17.3122 28 17.3217 28C17.3312 28 17.3407 28 17.3503 28C17.3598 28 17.3693 28 17.3788 28C17.3883 28 17.3979 28 17.4074 28C17.4169 28 17.4264 28 17.4359 28C17.4455 28 17.455 28 17.4645 28C17.474 28 17.4835 28 17.4931 28C17.5026 28 17.5121 28 17.5216 28C17.5311 28 17.5407 28 17.5502 28C17.5597 28 17.5692 28 17.5788 28C17.5883 28 17.5978 28 17.6073 28C17.6168 28 17.6264 28 17.6359 28C17.6454 28 17.6549 28 17.6645 28C17.674 28 17.6835 28 17.693 28C17.7026 28 17.7121 28 17.7216 28C17.7312 28 17.7407 28 17.7502 28C17.7597 28 17.7693 28 17.7788 28C17.7883 28 17.7979 28 17.8074 28C17.8169 28 17.8265 28 17.836 28C17.8455 28 17.8551 28 17.8646 28C17.8742 28 17.8837 28 17.8932 28C17.9028 28 17.9123 28 17.9219 28C17.9314 28 17.9409 28 17.9505 28C17.96 28 17.9696 28 17.9791 28C17.9887 28 17.9982 28 18.0078 28C18.0173 28 18.0269 28 18.0364 28C18.046 28 18.0555 28 18.0651 28C18.0746 28 18.0842 28 18.0937 28C18.1033 28 18.1129 28 18.1224 28C18.132 28 18.1415 28 18.1511 28C18.1607 28 18.1702 28 18.1798 28C18.1894 28 18.1989 28 18.2085 28C18.2181 28 18.2276 28 18.2372 28C18.2468 28 18.2564 28 18.2659 28C18.2755 28 18.2851 28 18.2947 28C18.3043 28 18.3139 28 18.3234 28C18.333 28 18.3426 28 18.3522 28C18.3618 28 18.3714 28 18.381 28C18.3906 28 18.4002 28 18.4098 28C18.4194 28 18.429 28 18.4386 28C18.4482 28 18.4578 28 18.4674 28C18.477 28 18.4866 28 18.4962 28C18.5058 28 18.5154 28 18.525 28C18.5347 28 18.5443 28 18.5539 28C18.5635 28 18.5732 28 18.5828 28C18.5924 28 18.602 28 18.6117 28C18.6213 28 18.6309 28 18.6406 28C18.6502 28 18.6598 28 18.6695 28C18.6791 28 18.6888 28 18.6984 28C18.7081 28 18.7177 28 18.7274 28C18.737 28 18.7467 28 18.7563 28C18.766 28 18.7757 28 18.7853 28C18.795 28 18.8047 28 18.8143 28C18.824 28 18.8337 28 18.8434 28C18.853 28 18.8627 28 18.8724 28C18.8821 28 18.8918 28 18.9015 28C18.9111 28 18.9208 28 18.9305 28C18.9402 28 18.9499 28 18.9596 28C18.9693 28 18.979 28 18.9887 28C18.9985 28 19.0082 28 19.0179 28C19.0276 28 19.0373 28 19.047 28C19.0568 28 19.0665 28 19.0762 28C19.086 28 19.0957 28 19.1054 28C19.1152 28 19.1249 28 19.1347 28C19.1444 28 19.1541 28 19.1639 28C19.1737 28 19.1834 28 19.1932 28C19.2029 28 19.2127 28 19.2225 28C19.2322 28 19.242 28 19.2518 28C19.2616 28 19.2713 28 19.2811 28C19.2909 28 19.3007 28 19.3105 28C19.3203 28 19.3301 28 19.3399 28C19.3497 28 19.3595 28 19.3693 28C19.3791 28 19.3889 28 19.3987 28C19.4085 28 19.4184 28 19.4282 28C19.438 28 19.4478 28 19.4577 28C19.4675 28 19.4773 28 19.4872 28C19.497 28 19.5069 28 19.5167 28C19.5266 28 19.5364 28 19.5463 28C19.5561 28 19.566 28 19.5759 28C19.5858 28 19.5956 28 19.6055 28C19.6154 28 19.6253 28 19.6352 28C19.645 28 19.6549 28 19.6648 28C19.6747 28 19.6846 28 19.6945 28C19.7045 28 19.7144 28 19.7243 28C19.7342 28 19.7441 28 19.754 28C19.764 28 19.7739 28 19.7838 28C19.7938 28 19.8037 28 19.8137 28C19.8236 28 19.8336 28 19.8435 28C19.8535 28 19.8634 28 19.8734 28C19.8834 28 19.8934 28 19.9033 28C19.9133 28 19.9233 28 19.9333 28C19.9433 28 19.9533 28 19.9633 28C19.9733 28 19.9833 28 19.9933 28C20.0033 28 20.0133 28 20.0233 28C20.0334 28 20.0434 28 20.0534 28C20.0634 28 20.0735 28 20.0835 28C20.0936 28 20.1036 28 20.1137 28C20.1237 28 20.1338 28 20.1439 28C20.1539 28 20.164 28 20.1741 28C20.1842 28 20.1942 28 20.2043 28C20.2144 28 20.2245 28 20.2346 28C20.2447 28 20.2548 28 20.2649 28C20.2751 28 20.2852 28 20.2953 28C20.3054 28 20.3156 28 20.3257 28C20.3358 28 20.346 28 20.3561 28C20.3663 28 20.3764 28 20.3866 28C20.3968 28 20.4069 28 20.4171 28C20.4273 28 20.4375 28 20.4476 28C20.4578 28 20.468 28 20.4782 28C20.4884 28 20.4986 28 20.5089 28C20.5191 28 20.5293 28 20.5395 28C20.5497 28 20.56 28 20.5702 28C20.5805 28 20.5907 28 20.601 28C20.6112 28 20.6215 28 20.6317 28C20.642 28 20.6523 28 20.6626 28C20.6728 28 20.6831 28 20.6934 28C20.7037 28 20.714 28 20.7243 28C20.7346 28 20.7449 28 20.7553 28C20.7656 28 20.7759 28 20.7862 28C20.7966 28 20.8069 28 20.8173 28C20.8276 28 20.838 28 20.8483 28C20.8587 28 20.8691 28 20.8795 28C20.8898 28 20.9002 28 20.9106 28C20.921 28 20.9314 28 20.9418 28C20.9522 28 20.9626 28 20.9731 28C20.9835 28 20.9939 28 21.0043 28C21.0148 28 21.0252 28 21.0357 28C21.0461 28 21.0566 28 21.0671 28C21.0775 28 21.088 28 21.0985 28C21.109 28 21.1194 28 21.1299 28C21.1404 28 21.1509 28 21.1615 28C21.172 28 21.1825 28 21.193 28C21.2036 28 21.2141 28 21.2246 28C21.2352 28 21.2457 28 21.2563 28C21.2669 28 21.2774 28 21.288 28C21.2986 28 21.3092 28 21.3197 28C21.3303 28 21.3409 28 21.3515 28C21.3622 28 21.3728 28 21.3834 28C21.394 28 21.4047 28 21.4153 28C21.4259 28 21.4366 28 21.4472 28C21.4579 28 21.4686 28 21.4792 28C21.4899 28 21.5006 28 21.5113 28C21.522 28 21.5327 28 21.5434 28C21.5541 28 21.5648 28 21.5755 28C21.5863 28 21.597 28 21.6077 28C21.6185 28 21.6292 28 21.64 28C21.6508 28 21.6615 28 21.6723 28C21.6831 28 21.6939 28 21.7047 28C21.7155 28 21.7263 28 21.7371 28C21.7479 28 21.7587 28 21.7695 28L21.7695 25.5Z" fill="#E95D2E"/>
<path d="M176.94 25.7186C175.257 25.7186 173.808 25.3777 172.594 24.6958C171.386 24.0069 170.456 23.0339 169.802 21.7768C169.149 20.5126 168.822 19.0176 168.822 17.2917C168.822 15.6085 169.149 14.1312 169.802 12.8599C170.456 11.5886 171.376 10.5978 172.562 9.88761C173.755 9.17738 175.154 8.82227 176.759 8.82227C177.839 8.82227 178.844 8.99627 179.774 9.34428C180.711 9.68519 181.528 10.2001 182.224 10.889C182.927 11.5779 183.474 12.4444 183.865 13.4885C184.255 14.5254 184.451 15.7399 184.451 17.1319V18.3784H170.633V15.5659H180.179C180.179 14.9125 180.037 14.3336 179.753 13.8294C179.469 13.3251 179.074 12.9309 178.57 12.6468C178.073 12.3556 177.494 12.21 176.834 12.21C176.145 12.21 175.534 12.3698 175.001 12.6895C174.476 13.002 174.064 13.4245 173.765 13.9572C173.467 14.4828 173.314 15.0687 173.307 15.715V18.389C173.307 19.1987 173.456 19.8983 173.755 20.4877C174.06 21.0772 174.49 21.5318 175.044 21.8514C175.598 22.171 176.255 22.3308 177.015 22.3308C177.519 22.3308 177.981 22.2598 178.4 22.1177C178.819 21.9757 179.177 21.7626 179.476 21.4785C179.774 21.1944 180.001 20.8464 180.157 20.4345L184.355 20.7115C184.142 21.72 183.705 22.6007 183.045 23.3535C182.391 24.0993 181.546 24.6816 180.509 25.1007C179.479 25.5126 178.29 25.7186 176.94 25.7186Z" fill="#E95D2E"/>
<path d="M162.097 13.9572C162.026 13.6021 161.874 13.2825 161.639 12.9984C161.405 12.7072 161.096 12.4764 160.713 12.3059C160.336 12.1284 159.885 12.0396 159.36 12.0396C158.656 12.0396 158.063 12.1887 157.58 12.487C157.097 12.7782 156.856 13.1689 156.856 13.6589C156.856 14.0495 157.012 14.3798 157.325 14.6497C157.637 14.9196 158.173 15.1362 158.933 15.2995L161.895 15.8961C163.486 16.2228 164.672 16.7484 165.453 17.4728C166.235 18.1973 166.625 19.149 166.625 20.3279C166.625 21.4004 166.309 22.3414 165.677 23.1511C165.052 23.9608 164.193 24.5929 163.099 25.0474C162.012 25.4949 160.759 25.7186 159.338 25.7186C157.172 25.7186 155.446 25.2676 154.161 24.3656C153.799 24.1081 153.479 23.8245 153.202 23.5146C154.681 21.9366 154.729 21.9366 156.377 20.4238C156.512 21.0843 156.838 21.5886 157.357 21.9366C157.875 22.2775 158.539 22.448 159.349 22.448C160.144 22.448 160.784 22.2953 161.267 21.9899C161.757 21.6774 162.005 21.2761 162.012 20.786C162.005 20.3741 161.831 20.0368 161.49 19.774C161.149 19.5041 160.624 19.2981 159.914 19.1561L157.08 18.5914C155.482 18.2718 154.292 17.7179 153.511 16.9295C152.737 16.1412 152.35 15.1362 152.35 13.9146C152.35 12.8635 152.634 11.9579 153.202 11.198C153.777 10.438 154.583 9.8521 155.62 9.44016C156.664 9.02823 157.886 8.82227 159.285 8.82227C161.352 8.82227 162.978 9.25905 164.164 10.1326C164.646 10.4856 165.047 10.8902 165.367 11.3463C163.928 12.5449 163.928 12.5449 162.097 13.9572Z" fill="#E95D2E"/>
<path d="M138.513 15.9387V25.399H133.975V9.03533H138.3V11.9224H138.492C138.854 10.9707 139.461 10.2179 140.313 9.66388C141.166 9.1028 142.199 8.82227 143.414 8.82227C144.55 8.82227 145.541 9.07084 146.386 9.568C147.231 10.0652 147.888 10.7754 148.357 11.6987C148.825 12.6149 149.06 13.7086 149.06 14.9799V25.399H144.521V15.7896C144.529 14.7882 144.273 14.0069 143.754 13.4458C143.236 12.8777 142.522 12.5936 141.613 12.5936C141.002 12.5936 140.463 12.725 139.994 12.9877C139.532 13.2505 139.17 13.6341 138.907 14.1383C138.651 14.6355 138.52 15.2356 138.513 15.9387Z" fill="#E95D2E"/>
<path d="M123.503 25.7186C121.819 25.7186 120.371 25.3777 119.156 24.6958C117.949 24.0069 117.018 23.0339 116.365 21.7768C115.711 20.5126 115.385 19.0176 115.385 17.2917C115.385 15.6085 115.711 14.1312 116.365 12.8599C117.018 11.5886 117.938 10.5978 119.124 9.88761C120.317 9.17738 121.716 8.82227 123.322 8.82227C124.401 8.82227 125.406 8.99627 126.336 9.34428C127.274 9.68519 128.091 10.2001 128.787 10.889C129.49 11.5779 130.037 12.4444 130.427 13.4885C130.818 14.5254 131.013 15.7399 131.013 17.1319V18.3784H117.196V15.5659H126.741C126.741 14.9125 126.599 14.3336 126.315 13.8294C126.031 13.3251 125.637 12.9309 125.133 12.6468C124.635 12.3556 124.057 12.21 123.396 12.21C122.707 12.21 122.096 12.3698 121.564 12.6895C121.038 13.002 120.626 13.4245 120.328 13.9572C120.03 14.4828 119.877 15.0687 119.87 15.715V18.389C119.87 19.1987 120.019 19.8983 120.317 20.4877C120.623 21.0772 121.052 21.5318 121.606 21.8514C122.16 22.171 122.817 22.3308 123.577 22.3308C124.081 22.3308 124.543 22.2598 124.962 22.1177C125.381 21.9757 125.74 21.7626 126.038 21.4785C126.336 21.1944 126.564 20.8464 126.72 20.4345L130.917 20.7115C130.704 21.72 130.268 22.6007 129.607 23.3535C128.954 24.0993 128.108 24.6816 127.072 25.1007C126.042 25.5126 124.852 25.7186 123.503 25.7186Z" fill="#E95D2E"/>
<path d="M92.7512 3.58008V25.3983H88.2129V3.58008H92.7512Z" fill="#E95D2E"/>
<path d="M84.5774 3.58008V25.3983H80.0391V3.58008H84.5774Z" fill="#E95D2E"/>
<path d="M69.5671 25.7186C67.8839 25.7186 66.435 25.3777 65.2205 24.6958C64.0131 24.0069 63.0827 23.0339 62.4293 21.7768C61.7759 20.5126 61.4492 19.0176 61.4492 17.2917C61.4492 15.6085 61.7759 14.1312 62.4293 12.8599C63.0827 11.5886 64.0025 10.5978 65.1886 9.88761C66.3817 9.17738 67.7809 8.82227 69.386 8.82227C70.4656 8.82227 71.4705 8.99627 72.4009 9.34428C73.3384 9.68519 74.1552 10.2001 74.8512 10.889C75.5543 11.5779 76.1012 12.4444 76.4918 13.4885C76.8825 14.5254 77.0778 15.7399 77.0778 17.1319V18.3784H63.2603V15.5659H72.8058C72.8058 14.9125 72.6637 14.3336 72.3796 13.8294C72.0955 13.3251 71.7014 12.9309 71.1971 12.6468C70.6999 12.3556 70.1211 12.21 69.4606 12.21C68.7717 12.21 68.1609 12.3698 67.6282 12.6895C67.1026 13.002 66.6907 13.4245 66.3924 13.9572C66.0941 14.4828 65.9414 15.0687 65.9343 15.715V18.389C65.9343 19.1987 66.0835 19.8983 66.3818 20.4877C66.6872 21.0772 67.1168 21.5318 67.6708 21.8514C68.2248 22.171 68.8818 22.3308 69.6417 22.3308C70.146 22.3308 70.6076 22.2598 71.0266 22.1177C71.4457 21.9757 71.8043 21.7626 72.1026 21.4785C72.4009 21.1944 72.6282 20.8464 72.7844 20.4345L76.9819 20.7115C76.7688 21.72 76.332 22.6007 75.6715 23.3535C75.0181 24.0993 74.1729 24.6816 73.136 25.1007C72.1062 25.5126 70.9165 25.7186 69.5671 25.7186Z" fill="#E95D2E"/>
<path d="M54.9081 9.2627C53.9991 8.32129 53.921 8.32839 53.2747 7.85254C52.6284 7.37669 51.7513 7.13876 50.6433 7.13876C49.8905 7.13876 49.2548 7.24529 48.7363 7.45836C48.2179 7.66433 47.8202 7.95197 47.5432 8.32129C47.2733 8.69061 47.1383 9.10964 47.1383 9.57839C47.1241 9.96902 47.2058 10.3099 47.3834 10.6011C47.568 10.8923 47.8201 11.1444 48.1398 11.3575C48.4594 11.5635 48.8287 11.7446 49.2477 11.9008C49.6667 12.05 50.1142 12.1778 50.59 12.2844L52.5503 12.7531C53.502 12.9662 54.3755 13.2503 55.171 13.6054C55.9665 13.9605 56.6554 14.3973 57.2378 14.9157C57.8201 15.4342 58.2712 16.045 58.5908 16.7481C58.9175 17.4513 59.0844 18.2574 59.0915 19.1665C59.0844 20.5017 58.7434 21.6594 58.0687 22.6395C57.4011 23.6125 56.4352 24.3689 55.171 24.9086C53.9139 25.4413 52.3976 25.7077 50.622 25.7077C48.8606 25.7077 47.3265 25.4378 46.0197 24.898C44.72 24.3582 43.1397 22.8987 42.4082 21.8405C40.5767 18.7627 44.4238 16.7627 45.9081 18.7627C46.4081 19.7627 46.5559 19.8909 46.9253 20.3809C47.3017 20.8639 47.8024 21.2297 48.4274 21.4783C49.0595 21.7197 49.7733 21.8405 50.5687 21.8405C51.35 21.8405 52.0282 21.7268 52.6035 21.4996C53.1859 21.2723 53.6369 20.9562 53.9565 20.5514C54.2761 20.1466 54.4359 19.6814 54.4359 19.1558C54.4359 18.6658 54.2903 18.2538 53.9991 17.92C53.715 17.5862 53.296 17.3021 52.742 17.0677C52.1951 16.8334 51.524 16.6203 50.7285 16.4285L48.3528 15.8319C46.5133 15.3845 45.0609 14.6849 43.9956 13.7332C42.9302 12.7815 42.4011 11.4996 42.4082 9.88734C42.4011 8.56632 42.7527 7.4122 43.4629 6.42498C44.1802 5.43777 45.1639 4.66717 46.4139 4.11319C47.6639 3.55922 49.0844 3.28223 50.6753 3.28223C52.2946 3.28223 53.7079 3.55922 54.9153 4.11319C56.1298 4.66717 57.0744 5.43777 57.7491 6.42498C59.4238 8.7627 56.4238 10.7627 54.9081 9.2627Z" fill="#E95D2E"/>
<path d="M108.908 9.2627C107.999 8.32129 107.921 8.32839 107.275 7.85254C106.628 7.37669 105.751 7.13876 104.643 7.13876C103.89 7.13876 103.255 7.24529 102.736 7.45836C102.218 7.66433 101.82 7.95197 101.543 8.32129C101.273 8.69061 101.138 9.10964 101.138 9.57839C101.124 9.96902 101.206 10.3099 101.383 10.6011C101.568 10.8923 101.82 11.1444 102.14 11.3575C102.459 11.5635 102.829 11.7446 103.248 11.9008C103.667 12.05 104.114 12.1778 104.59 12.2844L106.55 12.7531C107.502 12.9662 108.376 13.2503 109.171 13.6054C109.966 13.9605 110.655 14.3973 111.238 14.9157C111.82 15.4342 112.271 16.045 112.591 16.7481C112.917 17.4513 113.084 18.2574 113.091 19.1665C113.084 20.5017 112.743 21.6594 112.069 22.6395C111.401 23.6125 110.435 24.3689 109.171 24.9086C107.914 25.4413 106.398 25.7077 104.622 25.7077C102.861 25.7077 101.327 25.4378 100.02 24.898C98.72 24.3582 97.1397 22.8987 96.4082 21.8405C94.5767 18.7627 98.4238 16.7627 99.9081 18.7627C100.408 19.7627 100.556 19.8909 100.925 20.3809C101.302 20.8639 101.802 21.2297 102.427 21.4783C103.059 21.7197 103.773 21.8405 104.569 21.8405C105.35 21.8405 106.028 21.7268 106.604 21.4996C107.186 21.2723 107.637 20.9562 107.957 20.5514C108.276 20.1466 108.436 19.6814 108.436 19.1558C108.436 18.6658 108.29 18.2538 107.999 17.92C107.715 17.5862 107.296 17.3021 106.742 17.0677C106.195 16.8334 105.524 16.6203 104.729 16.4285L102.353 15.8319C100.513 15.3845 99.0609 14.6849 97.9956 13.7332C96.9302 12.7815 96.4011 11.4996 96.4082 9.88734C96.4011 8.56632 96.7527 7.4122 97.4629 6.42498C98.1802 5.43777 99.1639 4.66717 100.414 4.11319C101.664 3.55922 103.084 3.28223 104.675 3.28223C106.295 3.28223 107.708 3.55922 108.915 4.11319C110.13 4.66717 111.074 5.43777 111.749 6.42498C113.424 8.7627 110.424 10.7627 108.908 9.2627Z" fill="#E95D2E"/>
<path d="M197.541 19L194.793 10.6H196.809L199.197 18.04H198.189L200.685 10.6H202.485L204.885 18.04H203.913L206.361 10.6H208.221L205.473 19H203.385L201.261 12.472H201.813L199.629 19H197.541ZM208.161 19L211.905 10.6H213.825L217.581 19H215.541L212.469 11.584H213.237L210.153 19H208.161ZM210.033 17.2L210.549 15.724H214.869L215.397 17.2H210.033ZM218.692 19V10.6H220.636V17.416H224.848V19H218.692ZM226.175 19V10.6H228.119V17.416H232.331V19H226.175ZM235.445 13.984H239.489V15.496H235.445V13.984ZM235.589 17.44H240.161V19H233.657V10.6H240.005V12.16H235.589V17.44ZM243.688 19V12.184H241V10.6H248.32V12.184H245.632V19H243.688Z" fill="black"/>
<path d="M3.71508 51.5V42.386H6.37508C8.34908 42.386 9.17508 43.59 9.17508 45.116C9.17508 46.6 8.37708 47.888 6.37508 47.888H4.58308V51.5H3.71508ZM4.58308 47.258H6.27708C7.70508 47.258 8.23708 46.642 8.23708 45.158V45.046C8.23708 43.604 7.70508 43.1 6.24908 43.1H4.58308V47.258ZM13.2008 51.696C11.5348 51.696 10.4148 50.366 10.4148 47.888C10.4148 45.382 11.5768 44.094 13.2008 44.094C14.8248 44.094 15.9588 45.382 15.9588 47.846C15.9588 50.366 14.8668 51.696 13.2008 51.696ZM13.2008 51.052C14.3208 51.052 15.1188 50.212 15.1188 48V47.818C15.1188 45.48 14.3768 44.766 13.2008 44.766C12.0108 44.766 11.2548 45.494 11.2548 47.748V47.93C11.2548 50.212 12.0668 51.052 13.2008 51.052ZM18.7478 51.5L16.9418 44.234H17.7398L18.9998 49.498L19.2238 51.178L19.5738 48.98L20.7078 44.234H21.6178L22.7378 48.98L23.0318 51.178L23.2558 49.498L24.4878 44.234H25.2158L23.4238 51.5H22.5838L21.4498 46.726L21.1278 44.598L20.8058 46.726L19.5878 51.5H18.7478ZM27.0322 48.098C27.0462 50.296 27.7182 51.038 29.0762 51.038C29.7062 51.038 30.2522 50.856 30.9242 50.534L31.1062 51.15C30.6722 51.388 29.8602 51.696 29.0202 51.696C27.1722 51.696 26.1922 50.45 26.1922 47.874C26.1922 45.186 27.3262 44.094 28.9362 44.094C30.5882 44.094 31.4002 45.396 31.4002 47.412V48.098H27.0322ZM27.0322 47.44H30.5742V47.258C30.5742 45.424 30.0142 44.752 28.9362 44.752C27.8722 44.752 27.1022 45.228 27.0322 47.44ZM34.041 45.116L34.741 44.36C35.105 44.192 35.441 44.094 35.805 44.094C36.253 44.094 36.575 44.192 36.757 44.276L36.589 45.032C36.281 44.906 36.029 44.836 35.581 44.836C34.951 44.836 34.531 45.144 34.069 45.536V51.5H33.271V44.234H33.663L34.041 45.116ZM38.5029 48.098C38.5169 50.296 39.1889 51.038 40.5469 51.038C41.1769 51.038 41.7229 50.856 42.3949 50.534L42.5769 51.15C42.1429 51.388 41.3309 51.696 40.4909 51.696C38.6429 51.696 37.6629 50.45 37.6629 47.874C37.6629 45.186 38.7969 44.094 40.4069 44.094C42.0589 44.094 42.8709 45.396 42.8709 47.412V48.098H38.5029ZM38.5029 47.44H42.0449V47.258C42.0449 45.424 41.4849 44.752 40.4069 44.752C39.3429 44.752 38.5729 45.228 38.5029 47.44ZM48.6198 44.822V41.448H49.4178V51.5H49.0258L48.6618 50.632L47.8358 51.43C47.6258 51.528 47.2758 51.64 46.7718 51.64C45.1618 51.64 44.2938 50.324 44.2938 47.79C44.2938 45.284 45.2878 44.094 46.7998 44.094C47.6398 44.094 48.2278 44.472 48.6198 44.822ZM48.6198 50.24V45.452C48.2978 45.2 47.6958 44.766 46.8978 44.766C45.7638 44.766 45.1198 45.354 45.1198 47.72V47.916C45.1198 50.226 45.7778 51.01 46.9118 51.01C47.5978 51.01 47.9898 50.73 48.6198 50.24ZM55.6943 50.772L55.4143 51.542H55.0503V41.448H55.8483V44.948C56.2543 44.542 56.8703 44.094 57.7523 44.094C59.2783 44.094 60.2303 45.228 60.2303 47.79C60.2303 50.576 59.2503 51.696 57.5983 51.696C57.1363 51.696 56.7583 51.584 56.5623 51.514L55.6943 50.772ZM55.8483 45.564V50.436C56.3243 50.814 56.8563 51.066 57.5003 51.066C58.7743 51.066 59.4043 50.268 59.4043 47.916V47.72C59.4043 45.368 58.6903 44.766 57.6683 44.766C56.7303 44.766 56.1703 45.242 55.8483 45.564ZM62.7933 53.768L63.5073 51.332L61.2113 44.234H62.0373L63.5773 49.162L63.9273 51.038L64.3053 49.162L65.8453 44.234H66.6433L63.5913 53.768H62.7933Z" fill="#31373D"/>
<path d="M80.09 40.4316H74.9485V40.8711H76.5859V49.4096C76.5859 51.9751 75.8749 52.6978 74.2891 52.6978C74.1341 52.7119 73.9778 52.6919 73.8313 52.6393C73.6848 52.5867 73.5516 52.5026 73.441 52.393C73.3303 52.2835 73.245 52.151 73.1909 52.005C73.1368 51.8589 73.1152 51.7028 73.1278 51.5475C73.1278 50.6142 73.0755 50.0429 72.2258 50.0429C71.376 50.0429 71.2715 50.9044 71.2715 51.1702C71.2715 52.3462 71.7943 53.246 74.1294 53.246C76.9121 53.246 78.3996 52.3057 78.3996 49.1836V40.8683H80.0907L80.09 40.4316Z" fill="#392512"/>
<path d="M80.7807 51.2642C80.6479 51.2596 80.5156 51.2829 80.3923 51.3325C80.269 51.3821 80.1575 51.457 80.0649 51.5523C79.9685 51.6447 79.8924 51.756 79.8413 51.8793C79.7902 52.0026 79.7652 52.1352 79.7679 52.2687C79.7644 52.4004 79.7893 52.5313 79.8409 52.6525C79.8925 52.7738 79.9696 52.8824 80.0669 52.9711C80.16 53.0655 80.2712 53.14 80.3939 53.19C80.5167 53.2401 80.6483 53.2645 80.7807 53.262C80.9146 53.2644 81.0475 53.2399 81.1717 53.19C81.2959 53.14 81.4087 53.0656 81.5036 52.9711C81.5995 52.8815 81.6753 52.7725 81.7262 52.6515C81.777 52.5304 81.8016 52.4 81.7985 52.2687C81.7996 52.1353 81.774 52.003 81.7231 51.8797C81.6721 51.7564 81.597 51.6446 81.5021 51.5509C81.4071 51.4572 81.2944 51.3836 81.1705 51.3343C81.0466 51.2851 80.914 51.2613 80.7807 51.2642Z" fill="#392512"/>
<path d="M92.1997 51.2641C92.067 51.2616 91.9353 51.2858 91.8122 51.3354C91.6892 51.3849 91.5774 51.4588 91.4835 51.5525C91.3896 51.6463 91.3156 51.758 91.2658 51.881C91.216 52.0041 91.1915 52.1359 91.1938 52.2686C91.1898 52.3995 91.2135 52.5298 91.2635 52.6509C91.3135 52.772 91.3886 52.8811 91.4838 52.971C91.6778 53.1577 91.9365 53.2619 92.2056 53.2619C92.4747 53.2619 92.7334 53.1577 92.9274 52.971C93.024 52.8819 93.1004 52.773 93.1515 52.6519C93.2026 52.5307 93.2272 52.4 93.2236 52.2686C93.227 52.1352 93.2026 52.0026 93.1518 51.8793C93.101 51.7559 93.0251 51.6445 92.9288 51.5522C92.8332 51.4571 92.7193 51.3825 92.5939 51.3329C92.4685 51.2834 92.3344 51.26 92.1997 51.2641Z" fill="#392512"/>
<path d="M88.6164 40.4316H83.5829V40.8697H85.0621V50.6107C85.099 51.0109 85.0539 51.4144 84.9297 51.7965C84.8745 51.9286 84.7922 52.0476 84.688 52.1458C84.5839 52.244 84.4603 52.3191 84.3253 52.3664C83.993 52.4791 83.6437 52.5331 83.293 52.5262V52.9272H88.7126V52.529C88.3609 52.5319 88.0107 52.4828 87.6733 52.3832C87.5331 52.3381 87.404 52.2639 87.2945 52.1655C87.1849 52.067 87.0974 51.9465 87.0376 51.8119C86.9331 51.5596 86.8854 51.2874 86.8982 51.0146V47.6811L88.24 47.6762C92.1345 47.6762 93.2289 46.1416 93.2289 44.0393C93.2289 41.9181 92.5576 40.4316 88.6136 40.4316M87.9263 47.1977H86.901V40.9297L87.8322 40.9178C90.8373 40.9178 91.4925 42.1538 91.4925 44.1572C91.4925 46.1737 90.3117 47.2026 87.9291 47.2026" fill="#392512"/>
<path d="M109.287 51.7652C109.209 51.4885 109.174 51.2015 109.182 50.9142V40.8711C109.182 40.8711 110.503 40.8641 110.487 40.8592C110.48 40.7266 110.48 40.5936 110.487 40.4609H107.291C107.246 40.5767 103.474 49.9816 103.474 49.9816C103.466 49.9982 103.454 50.0123 103.439 50.0223C103.424 50.0323 103.406 50.0378 103.388 50.0381C103.369 50.0391 103.35 50.0343 103.334 50.0242C103.318 50.0141 103.305 49.9992 103.297 49.9816C103.297 49.9816 99.2782 40.5767 99.2301 40.4609H95.6855V40.8641H97.2247V50.5361L97.1912 51.4171C97.1727 51.6331 97.1008 51.8412 96.9821 52.0225C96.8411 52.2156 96.6416 52.358 96.4133 52.4285C96.177 52.4953 95.9325 52.5284 95.6869 52.5269V52.9272H99.2064V52.5303C99.0008 52.5305 98.7966 52.4966 98.6021 52.4299C98.3699 52.3653 98.1656 52.2255 98.0214 52.0323C97.9002 51.8473 97.8265 51.6353 97.8067 51.415L97.7663 50.5361V42.1852H97.9754C97.9754 42.1852 102.527 52.8163 102.576 52.9328H102.956L107.263 42.3031H107.373V50.9177C107.381 51.2129 107.344 51.5076 107.263 51.7917C107.219 51.9203 107.148 52.0385 107.057 52.139C106.965 52.2394 106.853 52.3199 106.729 52.3755C106.442 52.4799 106.139 52.5323 105.833 52.5303V52.9272H110.745V52.5248C110.437 52.5235 110.132 52.468 109.843 52.3608C109.714 52.3056 109.599 52.2238 109.504 52.1208C109.409 52.0178 109.336 51.8959 109.292 51.7631" fill="#392512"/>
<path d="M115.895 43.7751C113.273 43.7751 111.629 45.5148 111.629 48.5518C111.629 53.0014 115.089 53.295 115.836 53.295C117.315 53.295 120.118 52.3722 120.118 48.4674C120.118 45.4283 118.325 43.7751 115.895 43.7751ZM115.86 52.7433C113.889 52.7433 113.586 51.7577 113.586 48.5999C113.586 46.1586 113.738 44.3276 115.86 44.3276C118.153 44.3276 118.164 46.2235 118.164 48.4472C118.164 51.6412 117.619 52.7433 115.86 52.7433Z" fill="#392512"/>
<path d="M126.974 43.9121C125.407 43.9121 124.917 44.8391 124.485 45.7829C124.444 45.7792 124.403 45.7778 124.362 45.7787C124.349 45.7829 124.137 44.406 124.056 44.0007C123.444 44.0007 121.021 43.9944 121.021 43.9944V44.4604H122.664C122.664 44.4604 122.654 45.8554 122.654 46.3584V50.6307C122.683 51.0724 122.615 51.5149 122.455 51.9275C122.287 52.2316 121.911 52.385 121.287 52.385H121.021V52.9291H126.106V52.385H125.833C125.166 52.385 124.878 52.24 124.698 51.9505C124.506 51.5387 124.425 51.0836 124.464 50.6307V47.4263C124.464 46.3458 125.277 45.1161 126.252 45.1161C127.27 45.1161 127.246 46.6855 128.4 46.0542C129.027 45.711 128.922 43.9121 126.974 43.9121Z" fill="#392512"/>
<path d="M147.233 52.0156C146.689 52.0156 146.516 51.7122 146.476 51.2086L146.444 50.0646V46.3224C146.48 45.9921 146.444 45.658 146.34 45.3428C146.235 45.0275 146.064 44.7385 145.837 44.4955C145.369 44.0191 144.463 43.775 143.152 43.775C142.172 43.7003 141.195 43.9422 140.363 44.4648C140.116 44.6137 139.912 44.8243 139.77 45.0759C139.629 45.3276 139.555 45.6116 139.556 45.9004C139.546 46.0098 139.562 46.1201 139.601 46.2227C139.64 46.3254 139.702 46.4177 139.783 46.4926C139.935 46.6275 140.133 46.6987 140.336 46.6914C140.841 46.6914 141.125 46.434 141.23 45.7692C141.255 45.3871 141.406 45.0239 141.658 44.7362C141.822 44.5889 142.014 44.4768 142.223 44.4066C142.431 44.3364 142.652 44.3097 142.871 44.3281C143.12 44.3007 143.371 44.3332 143.605 44.4228C143.838 44.5125 144.047 44.6568 144.213 44.8436C144.466 45.23 144.591 45.6866 144.569 46.148V47.6463C142.939 47.7935 139.092 48.1032 139.263 51.0349C139.314 51.6289 139.588 52.1815 140.03 52.5812C140.472 52.981 141.05 53.1981 141.645 53.1889C142.219 53.1703 142.782 53.0283 143.296 52.7727C143.81 52.517 144.263 52.1537 144.624 51.7073C144.7 52.1055 144.917 52.4629 145.235 52.7144C145.552 52.966 145.95 53.0947 146.355 53.0773C147.54 53.0773 148.246 52.4962 148.328 51.044H148.025C147.946 51.6759 147.554 52.0156 147.233 52.0156ZM144.57 51.0698C144.572 51.0831 144.571 51.0968 144.565 51.1092C144.56 51.1216 144.551 51.1321 144.539 51.1395L144.501 51.1758C143.977 51.7635 143.26 52.144 142.48 52.2486C142.279 52.2558 142.078 52.2193 141.893 52.1417C141.707 52.0641 141.541 51.9473 141.404 51.7992C141.268 51.6511 141.166 51.4752 141.104 51.2837C141.042 51.0922 141.022 50.8895 141.046 50.6896C141.046 49.026 143.324 48.1939 144.571 48.1939L144.57 51.0698Z" fill="#392512"/>
<path d="M157.66 51.9504C157.426 51.5494 157.316 51.0885 157.342 50.6251L157.366 46.5794C157.39 46.0635 157.288 45.5495 157.068 45.0825C156.858 44.6958 156.537 44.3812 156.146 44.1799C155.728 43.9774 155.268 43.8761 154.804 43.8841C154.207 43.8669 153.617 44.0208 153.104 44.3276C152.591 44.6344 152.177 45.0815 151.909 45.6161L151.746 45.6098L151.427 43.9866L148.663 43.9818V44.4477C149.182 44.4693 150.047 44.4784 150.047 44.4784V50.623C150.06 50.975 150.024 51.3272 149.94 51.6693C149.906 51.7983 149.842 51.9175 149.754 52.0169C149.665 52.1163 149.553 52.1929 149.429 52.2406C149.182 52.3249 148.923 52.3678 148.662 52.3675V52.9269H153.058V52.3605C152.889 52.3674 152.721 52.3367 152.565 52.2708C152.41 52.2048 152.271 52.1051 152.159 51.979C151.955 51.5909 151.868 51.1522 151.908 50.7157V48.3581C151.824 47.5005 151.937 46.6351 152.239 45.8281C152.417 45.5171 152.676 45.2602 152.988 45.0844C153.3 44.9087 153.654 44.8208 154.012 44.83C154.26 44.7956 154.512 44.8387 154.734 44.9534C154.956 45.068 155.138 45.2485 155.254 45.4703C155.469 46.1439 155.571 46.8488 155.555 47.5559L155.532 50.48C155.532 50.9683 155.594 51.3275 155.555 51.5591C155.537 51.683 155.494 51.802 155.428 51.9084C155.362 52.0147 155.275 52.106 155.171 52.1764C154.956 52.2959 154.713 52.3592 154.467 52.3605V52.9269H158.703V52.3689C158.167 52.334 157.817 52.2036 157.663 51.9539" fill="#392512"/>
<path d="M137.759 43.4158C137.615 43.4752 137.49 43.5727 137.397 43.6979C137.304 43.8231 137.247 43.9713 137.232 44.1266C137.162 44.49 137.022 44.7007 136.841 44.76C136.63 44.8116 136.408 44.7955 136.207 44.7139C135.407 44.0442 134.38 43.7082 133.34 43.7758C132.879 43.7408 132.416 43.8026 131.98 43.9573C131.544 44.1119 131.146 44.356 130.81 44.6739C130.474 44.9918 130.208 45.3765 130.029 45.8032C129.851 46.2299 129.763 46.6893 129.772 47.1518C129.772 49.0351 130.497 49.9489 132.09 50.2844C132.186 50.3047 132.186 50.4121 132.102 50.4302C130.744 50.7057 129.539 51.104 129.539 52.3966C129.531 52.7142 129.626 53.026 129.809 53.2852C129.993 53.5445 130.256 53.7371 130.558 53.8342C131.404 54.1246 132.295 54.2634 133.19 54.2443C134.166 54.2555 134.854 54.2897 135.303 54.3434C135.716 54.3751 136.114 54.5133 136.458 54.7445C136.607 54.8629 136.725 55.0153 136.803 55.1888C136.88 55.3623 136.916 55.552 136.905 55.7419C136.898 56.0471 136.805 56.344 136.636 56.5979C136.466 56.8518 136.229 57.0524 135.95 57.1761C135.201 57.5438 134.372 57.7173 133.539 57.6804C132.771 57.7338 132.003 57.563 131.33 57.1886C131.129 57.0496 130.976 56.8513 130.893 56.6213C130.809 56.3913 130.799 56.141 130.865 55.9051C130.898 55.8073 130.911 55.7033 130.901 55.6003C130.89 55.4973 130.858 55.3976 130.806 55.3081C130.754 55.2186 130.684 55.1414 130.599 55.0817C130.515 55.022 130.418 54.9812 130.317 54.9621C130.171 54.9444 130.023 54.967 129.889 55.0275C129.755 55.088 129.64 55.1841 129.557 55.3053C129.413 55.5518 129.344 55.8354 129.36 56.1207C129.369 56.532 129.517 56.928 129.78 57.2445C130.043 57.561 130.404 57.7795 130.807 57.8645C131.604 58.1217 132.439 58.2441 133.277 58.2265C134.234 58.2673 135.188 58.0888 136.065 57.7048C136.649 57.4464 137.139 57.0128 137.466 56.4639C137.717 56.02 137.852 55.5197 137.858 55.0095C137.884 54.4615 137.739 53.9189 137.443 53.4568C136.56 52.2403 135.303 52.3966 132.478 52.2612C131.12 52.2612 130.858 52.0164 130.858 51.5979C130.858 50.9848 131.362 50.7434 133.328 50.4407C135.264 50.14 137.068 49.4293 137.068 47.0632C137.073 46.4866 136.954 45.9156 136.719 45.3891C137.086 45.4827 137.472 45.4747 137.835 45.3661C138 45.3261 138.155 45.2531 138.291 45.1514C138.427 45.0498 138.541 44.9216 138.626 44.7746C138.697 44.6574 138.742 44.5267 138.759 44.391C138.776 44.2552 138.765 44.1174 138.725 43.9864C138.559 43.4563 138.243 43.2666 137.762 43.4151M133.388 49.928C132.232 49.928 131.569 49.5095 131.569 47.1532C131.569 45.4917 132.149 44.2557 133.388 44.2557C134.83 44.2557 135.252 45.3815 135.252 47.1155C135.252 49.5995 134.47 49.9252 133.388 49.9252" fill="#392512"/>
</svg>
